<svg id="Layer_1" data-name="Layer 1" xmlns="http://www.w3.org/2000/svg" xmlns:xlink="http://www.w3.org/1999/xlink" viewBox="0 0 1349.86 357.26"><defs><style>.cls-1{fill:url(#linear-gradient);}.cls-2{fill:url(#linear-gradient-2);}.cls-3{fill:#929497;}.cls-11,.cls-4,.cls-7{fill:none;stroke-miterlimit:10;}.cls-4{stroke:#929497;}.cls-5{fill:url(#linear-gradient-3);}.cls-6{fill:#ee4036;}.cls-7{stroke:#ee4036;}.cls-8{fill:url(#linear-gradient-4);}.cls-9{fill:url(#linear-gradient-5);}.cls-10{fill:blue;}.cls-11{stroke:url(#linear-gradient-6);}</style><linearGradient id="linear-gradient" x1="131.63" y1="176.18" x2="58.13" y2="78.75" gradientTransform="matrix(1, 0, 0, -1, -0.21, 393.76)" gradientUnits="userSpaceOnUse"><stop offset="0" stop-color="#3fa9f5"/><stop offset="1" stop-color="blue"/></linearGradient><linearGradient id="linear-gradient-2" x1="-1384.64" y1="728.71" x2="-1458.05" y2="631.16" gradientTransform="matrix(-0.57, 0.82, 0.82, 0.57, -1180.17, 846.64)" gradientUnits="userSpaceOnUse"><stop offset="0" stop-color="#f1f1f2"/><stop offset="1" stop-color="#929497"/></linearGradient><linearGradient id="linear-gradient-3" x1="-1329.33" y1="-894.22" x2="-1403.43" y2="-990.72" gradientTransform="matrix(-0.48, -0.88, -0.88, 0.48, -1175.63, -504.98)" gradientUnits="userSpaceOnUse"><stop offset="0" stop-color="#f6921e"/><stop offset="1" stop-color="#f05a28"/></linearGradient><linearGradient id="linear-gradient-4" x1="418.28" y1="133.96" x2="467.61" y2="133.96" gradientTransform="translate(-0.21 69.59)" xlink:href="#linear-gradient-3"/><linearGradient id="linear-gradient-5" x1="534.96" y1="134.75" x2="1361.38" y2="134.75" gradientTransform="translate(-0.21 69.59)" xlink:href="#linear-gradient"/><linearGradient id="linear-gradient-6" x1="21.97" y1="267.44" x2="310.86" y2="283.35" gradientUnits="userSpaceOnUse"><stop offset="0" stop-color="#2483c5"/><stop offset="1" stop-color="#2483c5"/></linearGradient></defs><g id="Layer_1-2" data-name="Layer 1"><path class="cls-1" d="M107.52,233.89l20.6-7L29.68,169.67S8.09,257.42,72.51,321.83c26.51,26.5,55.09,40.89,82,47.89-5.95-7.43-27-34.81-39.23-63.65C101,272.26,107.52,233.89,107.52,233.89Z" transform="translate(-12.61 -18.59)"/><path class="cls-2" d="M210.77,100.58l-6,20.92L308,73.59s-59.54-68-149.24-52.1C121.89,28,93.68,43.2,72.54,61.22c9.49-.61,44-2.21,74.64,4.34C183.06,73.24,210.77,100.58,210.77,100.58Z" transform="translate(-12.61 -18.59)"/><path class="cls-3" d="M30.67,134.35a74.57,74.57,0,0,1,5.81-9.92C78.69,64.08,199.16,89.54,210.77,99.57c0,0-27.71-26.33-63.59-34C116.57,59,82,60.57,72.54,61.23a176.32,176.32,0,0,0-29.92,33,166.08,166.08,0,0,0-22.47,45c-10.75,34.9-6,68.19-6,68.19S14.68,164.53,30.67,134.35Z" transform="translate(-12.61 -18.59)"/><path class="cls-4" d="M306.34,73.26l-100,46.41,5.42-18.82.17-.61-.48-.43c-7.62-6.55-57.17-19-103.46-13.2-15.43,1.92-29.14,5.71-40.72,11.24-13.34,6.38-24,15.11-31.6,26a73.11,73.11,0,0,0-5.87,10c-10.07,19-14.06,43.14-15.64,58.44-.24-12.93.74-32.71,7-52.88A164.42,164.42,0,0,1,43.42,94.75c18.87-27,54.23-61.45,115.47-72.3a152.91,152.91,0,0,1,60.72,1.43,169.16,169.16,0,0,1,46.83,18.54,180.72,180.72,0,0,1,39.88,30.84m1.65.33s-59.54-68-149.24-52.1C100.53,31.8,64,63.6,42.62,94.19a166.08,166.08,0,0,0-22.47,45c-10.75,34.9-6,68.19-6,68.19s.55-42.82,16.54-73a74.57,74.57,0,0,1,5.81-9.92c42.19-60.38,162.66-33.92,174.27-23.88l-6,20.92Z" transform="translate(-12.61 -18.59)"/><path class="cls-5" d="M268.59,248.28l-16-14.72-3.08,113.8s87.38-23.05,113.05-110.44C373.14,201,372.1,169,365.37,142c-3.68,8.77-17.62,40.41-37.11,64.9C305.4,235.67,268.59,248.28,268.59,248.28Z" transform="translate(-12.61 -18.59)"/><path class="cls-6" d="M318.53,72a72.26,72.26,0,0,1,6.29,9.62c35.25,64.66-41.18,161.2-55.33,167.12,0,0,35.91-13.08,58.77-41.79,19.49-24.49,33.43-56.13,37.11-64.9a175.21,175.21,0,0,0-16.2-41.47,165.79,165.79,0,0,0-30.28-40.15c-26.45-25.16-58.36-35.74-58.36-35.74S298.62,44.22,318.53,72Z" transform="translate(-12.61 -18.59)"/><path class="cls-7" d="M250.49,346l3-110.24L267.89,249l.47.43.6-.25c9.26-3.91,42.47-42.73,57.89-86.76,5.15-14.67,7.86-28.63,8.06-41.47.23-14.78-2.85-28.2-9.2-39.86a73.91,73.91,0,0,0-6.36-9.73C306.83,53.91,287,39.59,274,31.38c11.69,5.54,29,15.22,44.26,29.77A164.31,164.31,0,0,1,348.3,101C364.06,130,379.17,177,361.61,236.65a152.45,152.45,0,0,1-28.32,53.74A168.53,168.53,0,0,1,295.89,324a179.48,179.48,0,0,1-45.37,22m-1,1.34s87.37-23.07,113-110.46c16.69-56.73,4.47-103.58-13.39-136.36a165.79,165.79,0,0,0-30.28-40.15c-26.45-25.16-58.36-35.74-58.36-35.74s38.09,19.55,58,47.31a72.26,72.26,0,0,1,6.29,9.62c35.25,64.66-42.08,160.75-56.23,166.68l-16-14.72Z" transform="translate(-12.61 -18.59)"/><path class="cls-8" d="M442.89,171.9l-19.66,4.77-5.16-20.31,32.41-9.67H467.4V260.4H442.89Z" transform="translate(-12.61 -18.59)"/><path class="cls-9" d="M536,146h88.14v22.85H561.57v23.69h55V215.4h-55v24.52H625v22.86H536Zm146.25,0h45.6c36.7,0,62.06,25.19,62.06,58.05v.34c0,32.86-25.36,58.39-62.06,58.39h-45.6Zm45.6,93.59c21,0,35.2-14.18,35.2-34.87v-.33c0-20.69-14.18-35.2-35.2-35.2H708v70.4Zm135-69.92H827.3V146h96.77v23.67H888.53v93.09H862.89ZM975.82,146h88.07v22.85H1001.3v23.69h55v22.86h-55V239.9h63.4v22.86H975.77Zm134.29,58.69v-.33c0-33.2,25-60.4,60.9-60.4,22,0,35.2,7.34,46,18l-16.35,18.85c-9-8.17-18.19-13.18-29.87-13.18C1151.16,167.61,1137,184,1137,204v.34c0,20,13.84,36.7,33.86,36.7,13.35,0,21.52-5.34,30.7-13.68l16.35,16.55c-12,12.84-25.36,20.85-47.88,20.85C1135.64,264.78,1110.11,238.26,1110.11,204.67ZM1263.69,146h25.7v46.21h47.38V146h25.69V262.78h-25.69V215.9h-47.38v46.88h-25.7Z" transform="translate(-12.61 -18.59)"/></g><path class="cls-10" d="M238.41,362.12A71,71,0,0,1,227,363c-73.65,0-121-113.89-119.43-129.15,0,0-6.52,38.37,7.74,72.18,12.18,28.84,33.28,56.22,39.23,63.65a175.55,175.55,0,0,0,44.16,5.62A165.27,165.27,0,0,0,248.38,368c34.76-11.2,59.33-34.15,59.33-34.15S272.31,357.93,238.41,362.12Z" transform="translate(-12.61 -18.59)"/><path class="cls-11" d="M29.68,169.67S8.09,257.42,72.51,321.83c41.82,41.81,88.81,53.51,126.14,53.51A165.27,165.27,0,0,0,248.38,368c34.76-11.2,59.33-34.15,59.33-34.15s-35.4,24.09-69.3,28.28A71,71,0,0,1,227,363c-73.65,0-121-113.89-119.43-129.15l20.6-7Z" transform="translate(-12.61 -18.59)"/></svg>