<svg xmlns="http://www.w3.org/2000/svg" xmlns:xlink="http://www.w3.org/1999/xlink" xmlns:lucid="lucid" width="1160" height="280"><g transform="translate(-60.000000000000014 -60)" lucid:page-tab-id="0_0"><path d="M340 168c0-4.42 3.58-8 8-8h144c4.42 0 8 3.58 8 8v104c0 4.42-3.58 8-8 8H348c-4.42 0-8-3.58-8-8z" stroke="#000" stroke-opacity="0" fill="#ff9e56"/><use xlink:href="#a" transform="matrix(1,0,0,1,340,160) translate(30.551296296296293 64.94444444444444)"/><use xlink:href="#b" transform="matrix(1,0,0,1,340,160) translate(67.3229012345679 64.94444444444444)"/><path d="M560 168c0-4.42 3.58-8 8-8h144c4.42 0 8 3.58 8 8v104c0 4.42-3.58 8-8 8H568c-4.42 0-8-3.58-8-8z" stroke="#000" stroke-opacity="0" fill="#ffb781"/><use xlink:href="#c" transform="matrix(1,0,0,1,560,160) translate(41.63462962962963 64.94444444444444)"/><path d="M780 168c0-4.42 3.58-8 8-8h144c4.42 0 8 3.58 8 8v104c0 4.42-3.58 8-8 8H788c-4.42 0-8-3.58-8-8z" stroke="#000" stroke-opacity="0" fill="#ffd1ae"/><use xlink:href="#d" transform="matrix(1,0,0,1,780,160) translate(30.054382716049375 53.69444444444444)"/><use xlink:href="#e" transform="matrix(1,0,0,1,780,160) translate(58.90246913580246 72.36111111111111)"/><path d="M1000 168c0-4.42 3.58-8 8-8h144c4.42 0 8 3.58 8 8v104c0 4.42-3.58 8-8 8h-144c-4.42 0-8-3.58-8-8z" stroke="#000" stroke-opacity="0" fill="#ffeadb"/><use xlink:href="#f" transform="matrix(1,0,0,1,1000,160) translate(48.504999999999995 64.94444444444444)"/><path d="M80 80h440v20l-10 10H80z" fill="#fe5900"/><path d="M520 80v20l-10 10H80" stroke="#666" fill="none"/><path d="M80 80h1120v240H80z" stroke="#666" fill="none"/><use xlink:href="#g" transform="matrix(1,0,0,1,88.00000000000001,80) translate(0 18.11111111111111)"/><use xlink:href="#h" transform="matrix(1,0,0,1,88.00000000000001,80) translate(22.425925925925927 18.11111111111111)"/><path d="M120 168c0-4.42 3.58-8 8-8h144c4.42 0 8 3.58 8 8v104c0 4.42-3.58 8-8 8H128c-4.42 0-8-3.58-8-8z" stroke="#000" stroke-opacity="0" fill="#ff9e56"/><use xlink:href="#i" transform="matrix(1,0,0,1,120,160) translate(18.301296296296293 46.19444444444444)"/><use xlink:href="#j" transform="matrix(1,0,0,1,120,160) translate(93.35685185185186 46.19444444444444)"/><use xlink:href="#k" transform="matrix(1,0,0,1,120,160) translate(83.10000000000001 64.86111111111111)"/><use xlink:href="#l" transform="matrix(1,0,0,1,120,160) translate(83.10000000000001 83.52777777777779)"/><path d="M204.75 234.75c0 2.62-2.13 4.75-4.75 4.75s-4.75-2.13-4.75-4.75S197.38 230 200 230s4.75 2.13 4.75 4.75z" stroke="#fff" fill="#ff9e56"/><path d="M200 239.5v6.65c0 3.67 1.64 9.14 3.65 12.2L210 268m-10-15.2L190 268m0-23.75h20" stroke="#fff" fill="none"/><path d="M190 238c0-4.42 3.58-8 8-8h4c4.42 0 8 3.58 8 8v44c0 4.42-3.58 8-8 8h-4c-4.42 0-8-3.58-8-8z" fill="none"/><defs><path fill="#fff" d="M275 0h-61l-44-196L126 0H64L0-248h53L97-49l45-199h58l43 199 44-199h52" id="m"/><path fill="#fff" d="M185-48c-13 30-37 53-82 52C43 2 14-33 14-96s30-98 90-98c62 0 83 45 84 108H66c0 31 8 55 39 56 18 0 30-7 34-22zm-45-69c5-46-57-63-70-21-2 6-4 13-4 21h74" id="n"/><path fill="#fff" d="M135-194c52 0 70 43 70 98 0 56-19 99-73 100-30 1-46-15-58-35L72 0H24l1-261h50v104c11-23 29-37 60-37zM114-30c31 0 40-27 40-66 0-37-7-63-39-63s-41 28-41 65c0 36 8 64 40 64" id="o"/><g id="a"><use transform="matrix(0.04320987654320988,0,0,0.04320987654320988,0,0)" xlink:href="#m"/><use transform="matrix(0.04320987654320988,0,0,0.04320987654320988,14.34567901234568,0)" xlink:href="#n"/><use transform="matrix(0.04320987654320988,0,0,0.04320987654320988,22.987654320987655,0)" xlink:href="#o"/></g><path fill="#fff" d="M182-130c37 4 62 22 62 59C244 23 116-4 24 0v-248c84 5 203-23 205 63 0 31-19 50-47 55zM76-148c40-3 101 13 101-30 0-44-60-28-101-31v61zm0 110c48-3 116 14 116-37 0-48-69-32-116-35v72" id="p"/><path fill="#fff" d="M135-150c-39-12-60 13-60 57V0H25l-1-190h47c2 13-1 29 3 40 6-28 27-53 61-41v41" id="q"/><path fill="#fff" d="M110-194c64 0 96 36 96 99 0 64-35 99-97 99-61 0-95-36-95-99 0-62 34-99 96-99zm-1 164c35 0 45-28 45-65 0-40-10-65-43-65-34 0-45 26-45 65 0 36 10 65 43 65" id="r"/><path fill="#fff" d="M231 0h-52l-39-155L100 0H48L-1-190h46L77-45c9-52 24-97 36-145h53l37 145 32-145h46" id="s"/><path fill="#fff" d="M137-138c1-29-70-34-71-4 15 46 118 7 119 86 1 83-164 76-172 9l43-7c4 19 20 25 44 25 33 8 57-30 24-41C81-84 22-81 20-136c-2-80 154-74 161-7" id="t"/><g id="b"><use transform="matrix(0.04320987654320988,0,0,0.04320987654320988,0,0)" xlink:href="#p"/><use transform="matrix(0.04320987654320988,0,0,0.04320987654320988,11.19135802469136,0)" xlink:href="#q"/><use transform="matrix(0.04320987654320988,0,0,0.04320987654320988,17.24074074074074,0)" xlink:href="#r"/><use transform="matrix(0.04320987654320988,0,0,0.04320987654320988,26.703703703703702,0)" xlink:href="#s"/><use transform="matrix(0.04320987654320988,0,0,0.04320987654320988,38.80246913580247,0)" xlink:href="#t"/><use transform="matrix(0.04320987654320988,0,0,0.04320987654320988,47.44444444444444,0)" xlink:href="#n"/><use transform="matrix(0.04320987654320988,0,0,0.04320987654320988,56.08641975308642,0)" xlink:href="#q"/></g><path fill="#666" d="M67-125c0 53 21 87 73 88 37 1 54-22 65-47l45 17C233-25 199 4 140 4 58 4 20-42 15-125 8-235 124-281 211-232c18 10 29 29 36 50l-46 12c-8-25-30-41-62-41-52 0-71 34-72 86" id="u"/><path fill="#666" d="M110-194c64 0 96 36 96 99 0 64-35 99-97 99-61 0-95-36-95-99 0-62 34-99 96-99zm-1 164c35 0 45-28 45-65 0-40-10-65-43-65-34 0-45 26-45 65 0 36 10 65 43 65" id="v"/><path fill="#666" d="M135-194c87-1 58 113 63 194h-50c-7-57 23-157-34-157-59 0-34 97-39 157H25l-1-190h47c2 12-1 28 3 38 12-26 28-41 61-42" id="w"/><path fill="#666" d="M137-138c1-29-70-34-71-4 15 46 118 7 119 86 1 83-164 76-172 9l43-7c4 19 20 25 44 25 33 8 57-30 24-41C81-84 22-81 20-136c-2-80 154-74 161-7" id="x"/><path fill="#666" d="M85 4C-2 5 27-109 22-190h50c7 57-23 150 33 157 60-5 35-97 40-157h50l1 190h-47c-2-12 1-28-3-38-12 25-28 42-61 42" id="y"/><path fill="#666" d="M220-157c-53 9-28 100-34 157h-49v-107c1-27-5-49-29-50C55-147 81-57 75 0H25l-1-190h47c2 12-1 28 3 38 10-53 101-56 108 0 13-22 24-43 59-42 82 1 51 116 57 194h-49v-107c-1-25-5-48-29-50" id="z"/><path fill="#666" d="M185-48c-13 30-37 53-82 52C43 2 14-33 14-96s30-98 90-98c62 0 83 45 84 108H66c0 31 8 55 39 56 18 0 30-7 34-22zm-45-69c5-46-57-63-70-21-2 6-4 13-4 21h74" id="A"/><path fill="#666" d="M135-150c-39-12-60 13-60 57V0H25l-1-190h47c2 13-1 29 3 40 6-28 27-53 61-41v41" id="B"/><g id="c"><use transform="matrix(0.04320987654320988,0,0,0.04320987654320988,0,0)" xlink:href="#u"/><use transform="matrix(0.04320987654320988,0,0,0.04320987654320988,11.19135802469136,0)" xlink:href="#v"/><use transform="matrix(0.04320987654320988,0,0,0.04320987654320988,20.654320987654323,0)" xlink:href="#w"/><use transform="matrix(0.04320987654320988,0,0,0.04320987654320988,30.11728395061729,0)" xlink:href="#x"/><use transform="matrix(0.04320987654320988,0,0,0.04320987654320988,38.75925925925926,0)" xlink:href="#y"/><use transform="matrix(0.04320987654320988,0,0,0.04320987654320988,48.222222222222214,0)" xlink:href="#z"/><use transform="matrix(0.04320987654320988,0,0,0.04320987654320988,62.04938271604938,0)" xlink:href="#A"/><use transform="matrix(0.04320987654320988,0,0,0.04320987654320988,70.69135802469135,0)" xlink:href="#B"/></g><path fill="#666" d="M199 0l-22-63H83L61 0H9l90-248h61L250 0h-51zm-33-102l-36-108c-10 38-24 72-36 108h72" id="C"/><path fill="#666" d="M115-3C79 11 28 4 28-45v-112H4v-33h27l15-45h31v45h36v33H77v99c-1 23 16 31 38 25v30" id="D"/><path fill="#666" d="M114-157C55-157 80-60 75 0H25v-261h50l-1 109c12-26 28-41 61-42 86-1 58 113 63 194h-50c-7-57 23-157-34-157" id="E"/><path fill="#666" d="M25-224v-37h50v37H25zM25 0v-190h50V0H25" id="F"/><path fill="#666" d="M12 0v-35l95-120H19v-35h142v35L67-36h103V0H12" id="G"/><path fill="#666" d="M133-34C117-15 103 5 69 4 32 3 11-16 11-54c-1-60 55-63 116-61 1-26-3-47-28-47-18 1-26 9-28 27l-52-2c7-38 36-58 82-57s74 22 75 68l1 82c-1 14 12 18 25 15v27c-30 8-71 5-69-32zm-48 3c29 0 43-24 42-57-32 0-66-3-65 30 0 17 8 27 23 27" id="H"/><g id="d"><use transform="matrix(0.04320987654320988,0,0,0.04320987654320988,0,0)" xlink:href="#C"/><use transform="matrix(0.04320987654320988,0,0,0.04320987654320988,11.19135802469136,0)" xlink:href="#y"/><use transform="matrix(0.04320987654320988,0,0,0.04320987654320988,20.654320987654323,0)" xlink:href="#D"/><use transform="matrix(0.04320987654320988,0,0,0.04320987654320988,25.796296296296298,0)" xlink:href="#E"/><use transform="matrix(0.04320987654320988,0,0,0.04320987654320988,35.25925925925926,0)" xlink:href="#v"/><use transform="matrix(0.04320987654320988,0,0,0.04320987654320988,44.722222222222214,0)" xlink:href="#B"/><use transform="matrix(0.04320987654320988,0,0,0.04320987654320988,50.77160493827161,0)" xlink:href="#F"/><use transform="matrix(0.04320987654320988,0,0,0.04320987654320988,55.092592592592595,0)" xlink:href="#G"/><use transform="matrix(0.04320987654320988,0,0,0.04320987654320988,62.870370370370374,0)" xlink:href="#H"/><use transform="matrix(0.04320987654320988,0,0,0.04320987654320988,71.51234567901236,0)" xlink:href="#D"/><use transform="matrix(0.04320987654320988,0,0,0.04320987654320988,76.65432098765433,0)" xlink:href="#F"/><use transform="matrix(0.04320987654320988,0,0,0.04320987654320988,80.97530864197532,0)" xlink:href="#v"/><use transform="matrix(0.04320987654320988,0,0,0.04320987654320988,90.43827160493828,0)" xlink:href="#w"/></g><path fill="#666" d="M169-182c-1-43-94-46-97-3 18 66 151 10 154 114 3 95-165 93-204 36-6-8-10-19-12-30l50-8c3 46 112 56 116 5-17-69-150-10-154-114-4-87 153-88 188-35 5 8 8 18 10 28" id="I"/><path fill="#666" d="M128 0H69L1-190h53L99-40l48-150h52" id="J"/><g id="e"><use transform="matrix(0.04320987654320988,0,0,0.04320987654320988,0,0)" xlink:href="#I"/><use transform="matrix(0.04320987654320988,0,0,0.04320987654320988,10.370370370370372,0)" xlink:href="#A"/><use transform="matrix(0.04320987654320988,0,0,0.04320987654320988,19.01234567901235,0)" xlink:href="#B"/><use transform="matrix(0.04320987654320988,0,0,0.04320987654320988,25.06172839506173,0)" xlink:href="#J"/><use transform="matrix(0.04320987654320988,0,0,0.04320987654320988,33.70370370370371,0)" xlink:href="#A"/><use transform="matrix(0.04320987654320988,0,0,0.04320987654320988,42.345679012345684,0)" xlink:href="#B"/></g><path fill="#666" d="M24-248c93 1 206-16 204 79-1 75-69 88-152 82V0H24v-248zm52 121c47 0 100 7 100-41 0-47-54-39-100-39v80" id="K"/><path fill="#666" d="M88-194c31-1 46 15 58 34l-1-101h50l1 261h-48c-2-10 0-23-3-31C134-8 116 4 84 4 32 4 16-41 15-95c0-56 19-97 73-99zm17 164c33 0 40-30 41-66 1-37-9-64-41-64s-38 30-39 65c0 43 13 65 39 65" id="L"/><g id="f"><use transform="matrix(0.04320987654320988,0,0,0.04320987654320988,0,0)" xlink:href="#K"/><use transform="matrix(0.04320987654320988,0,0,0.04320987654320988,10.370370370370372,0)" xlink:href="#B"/><use transform="matrix(0.04320987654320988,0,0,0.04320987654320988,16.419753086419753,0)" xlink:href="#v"/><use transform="matrix(0.04320987654320988,0,0,0.04320987654320988,25.882716049382715,0)" xlink:href="#J"/><use transform="matrix(0.04320987654320988,0,0,0.04320987654320988,34.52469135802469,0)" xlink:href="#F"/><use transform="matrix(0.04320987654320988,0,0,0.04320987654320988,38.84567901234568,0)" xlink:href="#L"/><use transform="matrix(0.04320987654320988,0,0,0.04320987654320988,48.30864197530864,0)" xlink:href="#A"/><use transform="matrix(0.04320987654320988,0,0,0.04320987654320988,56.95061728395061,0)" xlink:href="#B"/></g><path fill="#fff" d="M133-34C117-15 103 5 69 4 32 3 11-16 11-54c-1-60 55-63 116-61 1-26-3-47-28-47-18 1-26 9-28 27l-52-2c7-38 36-58 82-57s74 22 75 68l1 82c-1 14 12 18 25 15v27c-30 8-71 5-69-32zm-48 3c29 0 43-24 42-57-32 0-66-3-65 30 0 17 8 27 23 27" id="M"/><path fill="#fff" d="M88-194c31-1 46 15 58 34l-1-101h50l1 261h-48c-2-10 0-23-3-31C134-8 116 4 84 4 32 4 16-41 15-95c0-56 19-97 73-99zm17 164c33 0 40-30 41-66 1-37-9-64-41-64s-38 30-39 65c0 43 13 65 39 65" id="N"/><g id="g"><use transform="matrix(0.04320987654320988,0,0,0.04320987654320988,0,0)" xlink:href="#M"/><use transform="matrix(0.04320987654320988,0,0,0.04320987654320988,8.641975308641976,0)" xlink:href="#N"/></g><path fill="#fff" d="M205 0l-28-72H64L36 0H1l101-248h38L239 0h-34zm-38-99l-47-123c-12 45-31 82-46 123h93" id="O"/><path fill="#fff" d="M114-163C36-179 61-72 57 0H25l-1-190h30c1 12-1 29 2 39 6-27 23-49 58-41v29" id="P"/><path fill="#fff" d="M96-169c-40 0-48 33-48 73s9 75 48 75c24 0 41-14 43-38l32 2c-6 37-31 61-74 61-59 0-76-41-82-99-10-93 101-131 147-64 4 7 5 14 7 22l-32 3c-4-21-16-35-41-35" id="Q"/><path fill="#fff" d="M106-169C34-169 62-67 57 0H25v-261h32l-1 103c12-21 28-36 61-36 89 0 53 116 60 194h-32v-121c2-32-8-49-39-48" id="R"/><path fill="#fff" d="M24-231v-30h32v30H24zM24 0v-190h32V0H24" id="S"/><path fill="#fff" d="M59-47c-2 24 18 29 38 22v24C64 9 27 4 27-40v-127H5v-23h24l9-43h21v43h35v23H59v120" id="T"/><path fill="#fff" d="M100-194c63 0 86 42 84 106H49c0 40 14 67 53 68 26 1 43-12 49-29l28 8c-11 28-37 45-77 45C44 4 14-33 15-96c1-61 26-98 85-98zm52 81c6-60-76-77-97-28-3 7-6 17-6 28h103" id="U"/><path fill="#fff" d="M84 4C-5 8 30-112 23-190h32v120c0 31 7 50 39 49 72-2 45-101 50-169h31l1 190h-30c-1-10 1-25-2-33-11 22-28 36-60 37" id="V"/><g id="h"><use transform="matrix(0.04320987654320988,0,0,0.04320987654320988,0,0)" xlink:href="#O"/><use transform="matrix(0.04320987654320988,0,0,0.04320987654320988,10.370370370370372,0)" xlink:href="#P"/><use transform="matrix(0.04320987654320988,0,0,0.04320987654320988,15.512345679012347,0)" xlink:href="#Q"/><use transform="matrix(0.04320987654320988,0,0,0.04320987654320988,23.290123456790127,0)" xlink:href="#R"/><use transform="matrix(0.04320987654320988,0,0,0.04320987654320988,31.9320987654321,0)" xlink:href="#S"/><use transform="matrix(0.04320987654320988,0,0,0.04320987654320988,35.345679012345684,0)" xlink:href="#T"/><use transform="matrix(0.04320987654320988,0,0,0.04320987654320988,39.66666666666667,0)" xlink:href="#U"/><use transform="matrix(0.04320987654320988,0,0,0.04320987654320988,48.308641975308646,0)" xlink:href="#Q"/><use transform="matrix(0.04320987654320988,0,0,0.04320987654320988,56.086419753086425,0)" xlink:href="#T"/><use transform="matrix(0.04320987654320988,0,0,0.04320987654320988,60.40740740740741,0)" xlink:href="#V"/><use transform="matrix(0.04320987654320988,0,0,0.04320987654320988,69.0493827160494,0)" xlink:href="#P"/><use transform="matrix(0.04320987654320988,0,0,0.04320987654320988,74.19135802469137,0)" xlink:href="#U"/></g><path fill="#fff" d="M240-174c0 40-23 61-54 70L253 0h-59l-57-94H76V0H24v-248c93 4 217-23 216 74zM76-134c48-2 112 12 112-38 0-48-66-32-112-35v73" id="W"/><path fill="#fff" d="M85 4C-2 5 27-109 22-190h50c7 57-23 150 33 157 60-5 35-97 40-157h50l1 190h-47c-2-12 1-28-3-38-12 25-28 42-61 42" id="X"/><path fill="#fff" d="M190-63c-7 42-38 67-86 67-59 0-84-38-90-98-12-110 154-137 174-36l-49 2c-2-19-15-32-35-32-30 0-35 28-38 64-6 74 65 87 74 30" id="Y"/><g id="i"><use transform="matrix(0.04320987654320988,0,0,0.04320987654320988,0,0)" xlink:href="#W"/><use transform="matrix(0.04320987654320988,0,0,0.04320987654320988,11.19135802469136,0)" xlink:href="#n"/><use transform="matrix(0.04320987654320988,0,0,0.04320987654320988,19.833333333333336,0)" xlink:href="#t"/><use transform="matrix(0.04320987654320988,0,0,0.04320987654320988,28.47530864197531,0)" xlink:href="#r"/><use transform="matrix(0.04320987654320988,0,0,0.04320987654320988,37.93827160493827,0)" xlink:href="#X"/><use transform="matrix(0.04320987654320988,0,0,0.04320987654320988,47.40123456790123,0)" xlink:href="#q"/><use transform="matrix(0.04320987654320988,0,0,0.04320987654320988,53.45061728395062,0)" xlink:href="#Y"/><use transform="matrix(0.04320987654320988,0,0,0.04320987654320988,62.0925925925926,0)" xlink:href="#n"/></g><path fill="#fff" d="M140-251c80 0 125 45 125 126S219 4 139 4C58 4 15-44 15-125s44-126 125-126zm-1 214c52 0 73-35 73-88 0-50-21-86-72-86-52 0-73 35-73 86s22 88 72 88" id="Z"/><path fill="#fff" d="M135-194c87-1 58 113 63 194h-50c-7-57 23-157-34-157-59 0-34 97-39 157H25l-1-190h47c2 12-1 28 3 38 12-26 28-41 61-42" id="aa"/><g id="j"><use transform="matrix(0.04320987654320988,0,0,0.04320987654320988,0,0)" xlink:href="#Z"/><use transform="matrix(0.04320987654320988,0,0,0.04320987654320988,12.098765432098766,0)" xlink:href="#s"/><use transform="matrix(0.04320987654320988,0,0,0.04320987654320988,24.19753086419753,0)" xlink:href="#aa"/><use transform="matrix(0.04320987654320988,0,0,0.04320987654320988,33.660493827160494,0)" xlink:href="#n"/><use transform="matrix(0.04320987654320988,0,0,0.04320987654320988,42.30246913580247,0)" xlink:href="#q"/></g></defs></g></svg>