<svg xmlns="http://www.w3.org/2000/svg" xmlns:xlink="http://www.w3.org/1999/xlink" xmlns:lucid="lucid" width="1160" height="1140"><g transform="translate(-60 -60)" lucid:page-tab-id="0_0"><path d="M200 280.5v899" fill="none"/><path d="M200 280.5v5m0 5v9.98m0 5v9.98m0 5v9.98m0 5v10m0 4.98v10m0 5v9.97m0 5v9.98m0 5v9.98m0 5v9.98m0 5v10m0 4.98v10m0 5v9.97m0 5v9.98m0 5v9.98m0 5v9.98m0 5v10m0 4.98v10m0 5v9.97m0 5v9.98m0 5v9.98m0 5v9.98m0 5v10m0 4.98v10m0 5v9.97m0 5v9.98m0 5v9.98m0 5v9.98m0 5v10m0 4.98v10m0 5v9.97m0 5v9.98m0 5v9.98m0 5v9.98m0 5v10m0 4.98v10m0 5v9.97m0 5v9.98m0 5v9.98m0 5v9.98m0 5v10m0 4.98v10m0 5v9.97m0 5v9.98m0 5v9.98m0 5v9.98m0 5v10m0 4.98v10m0 5v9.97m0 5v9.98m0 5v9.98m0 5v9.98m0 5v10m0 4.98v10m0 5v9.97m0 5v9.98m0 5v9.98m0 5v9.98m0 5v10m0 4.98v10m0 5v4.98" stroke="#666" fill="none"/><path d="M200.5 280.5h-1v-.5h1z" fill="#666"/><path d="M200 1179.5v.5" stroke="#666" fill="none"/><path d="M420 280.5v899" fill="none"/><path d="M420 280.5v5m0 5v9.98m0 5v9.98m0 5v9.98m0 5v10m0 4.98v10m0 5v9.97m0 5v9.98m0 5v9.98m0 5v9.98m0 5v10m0 4.98v10m0 5v9.97m0 5v9.98m0 5v9.98m0 5v9.98m0 5v10m0 4.98v10m0 5v9.97m0 5v9.98m0 5v9.98m0 5v9.98m0 5v10m0 4.98v10m0 5v9.97m0 5v9.98m0 5v9.98m0 5v9.98m0 5v10m0 4.98v10m0 5v9.97m0 5v9.98m0 5v9.98m0 5v9.98m0 5v10m0 4.98v10m0 5v9.97m0 5v9.98m0 5v9.98m0 5v9.98m0 5v10m0 4.98v10m0 5v9.97m0 5v9.98m0 5v9.98m0 5v9.98m0 5v10m0 4.98v10m0 5v9.97m0 5v9.98m0 5v9.98m0 5v9.98m0 5v10m0 4.98v10m0 5v9.97m0 5v9.98m0 5v9.98m0 5v9.98m0 5v10m0 4.98v10m0 5v4.98" stroke="#666" fill="none"/><path d="M420.5 280.5h-1v-.5h1z" fill="#666"/><path d="M420 1179.5v.5" stroke="#666" fill="none"/><path d="M640 280.5v899" fill="none"/><path d="M640 280.5v5m0 5v9.98m0 5v9.98m0 5v9.98m0 5v10m0 4.98v10m0 5v9.97m0 5v9.98m0 5v9.98m0 5v9.98m0 5v10m0 4.98v10m0 5v9.97m0 5v9.98m0 5v9.98m0 5v9.98m0 5v10m0 4.98v10m0 5v9.97m0 5v9.98m0 5v9.98m0 5v9.98m0 5v10m0 4.98v10m0 5v9.97m0 5v9.98m0 5v9.98m0 5v9.98m0 5v10m0 4.98v10m0 5v9.97m0 5v9.98m0 5v9.98m0 5v9.98m0 5v10m0 4.98v10m0 5v9.97m0 5v9.98m0 5v9.98m0 5v9.98m0 5v10m0 4.98v10m0 5v9.97m0 5v9.98m0 5v9.98m0 5v9.98m0 5v10m0 4.98v10m0 5v9.97m0 5v9.98m0 5v9.98m0 5v9.98m0 5v10m0 4.98v10m0 5v9.97m0 5v9.98m0 5v9.98m0 5v9.98m0 5v10m0 4.98v10m0 5v4.98" stroke="#666" fill="none"/><path d="M640.5 280.5h-1v-.5h1z" fill="#666"/><path d="M640 1179.5v.5" stroke="#666" fill="none"/><path d="M860 280.5v899" fill="none"/><path d="M860 280.5v5m0 5v9.98m0 5v9.98m0 5v9.98m0 5v10m0 4.98v10m0 5v9.97m0 5v9.98m0 5v9.98m0 5v9.98m0 5v10m0 4.98v10m0 5v9.97m0 5v9.98m0 5v9.98m0 5v9.98m0 5v10m0 4.98v10m0 5v9.97m0 5v9.98m0 5v9.98m0 5v9.98m0 5v10m0 4.98v10m0 5v9.97m0 5v9.98m0 5v9.98m0 5v9.98m0 5v10m0 4.98v10m0 5v9.97m0 5v9.98m0 5v9.98m0 5v9.98m0 5v10m0 4.98v10m0 5v9.97m0 5v9.98m0 5v9.98m0 5v9.98m0 5v10m0 4.98v10m0 5v9.97m0 5v9.98m0 5v9.98m0 5v9.98m0 5v10m0 4.98v10m0 5v9.97m0 5v9.98m0 5v9.98m0 5v9.98m0 5v10m0 4.98v10m0 5v9.97m0 5v9.98m0 5v9.98m0 5v9.98m0 5v10m0 4.98v10m0 5v4.98" stroke="#666" fill="none"/><path d="M860.5 280.5h-1v-.5h1z" fill="#666"/><path d="M860 1179.5v.5" stroke="#666" fill="none"/><path d="M1080 280.5v899" fill="none"/><path d="M1080 280.5v5m0 5v9.98m0 5v9.98m0 5v9.98m0 5v10m0 4.98v10m0 5v9.97m0 5v9.98m0 5v9.98m0 5v9.98m0 5v10m0 4.98v10m0 5v9.97m0 5v9.98m0 5v9.98m0 5v9.98m0 5v10m0 4.98v10m0 5v9.97m0 5v9.98m0 5v9.98m0 5v9.98m0 5v10m0 4.98v10m0 5v9.97m0 5v9.98m0 5v9.98m0 5v9.98m0 5v10m0 4.98v10m0 5v9.97m0 5v9.98m0 5v9.98m0 5v9.98m0 5v10m0 4.98v10m0 5v9.97m0 5v9.98m0 5v9.98m0 5v9.98m0 5v10m0 4.98v10m0 5v9.97m0 5v9.98m0 5v9.98m0 5v9.98m0 5v10m0 4.98v10m0 5v9.97m0 5v9.98m0 5v9.98m0 5v9.98m0 5v10m0 4.98v10m0 5v9.97m0 5v9.98m0 5v9.98m0 5v9.98m0 5v10m0 4.98v10m0 5v4.98" stroke="#666" fill="none"/><path d="M1080.5 280.5h-1v-.5h1z" fill="#666"/><path d="M1080 1179.5v.5" stroke="#666" fill="none"/><path d="M190 346c0-4.42 3.58-8 8-8h4c4.42 0 8 3.58 8 8v784c0 4.42-3.58 8-8 8h-4c-4.42 0-8-3.58-8-8z" stroke="#000" stroke-opacity="0" fill="#ffb781"/><path d="M340 168c0-4.42 3.58-8 8-8h144c4.42 0 8 3.58 8 8v104c0 4.42-3.58 8-8 8H348c-4.42 0-8-3.58-8-8z" stroke="#000" stroke-opacity="0" fill="#ff9e56"/><use xlink:href="#a" transform="matrix(1,0,0,1,340,160) translate(30.551296296296293 64.94444444444444)"/><use xlink:href="#b" transform="matrix(1,0,0,1,340,160) translate(67.3229012345679 64.94444444444444)"/><path d="M560 168c0-4.42 3.58-8 8-8h144c4.42 0 8 3.58 8 8v104c0 4.42-3.58 8-8 8H568c-4.42 0-8-3.58-8-8z" stroke="#000" stroke-opacity="0" fill="#ffb781"/><use xlink:href="#c" transform="matrix(1,0,0,1,560,160) translate(30.40006172839506 53.69444444444444)"/><use xlink:href="#d" transform="matrix(1,0,0,1,560,160) translate(90.76425925925926 53.69444444444444)"/><use xlink:href="#e" transform="matrix(1,0,0,1,560,160) translate(39.58765432098765 72.36111111111111)"/><path d="M780 168c0-4.42 3.58-8 8-8h144c4.42 0 8 3.58 8 8v104c0 4.42-3.58 8-8 8H788c-4.42 0-8-3.58-8-8z" stroke="#000" stroke-opacity="0" fill="#ffd1ae"/><use xlink:href="#f" transform="matrix(1,0,0,1,780,160) translate(30.054382716049375 53.69444444444444)"/><use xlink:href="#g" transform="matrix(1,0,0,1,780,160) translate(58.90246913580246 72.36111111111111)"/><path d="M410 346c0-4.42 3.58-8 8-8h4c4.42 0 8 3.58 8 8v244c0 4.42-3.58 8-8 8h-4c-4.42 0-8-3.58-8-8zM850 486c0-4.42 3.58-8 8-8h4c4.42 0 8 3.58 8 8v84c0 4.42-3.58 8-8 8h-4c-4.42 0-8-3.58-8-8zM630 366c0-4.42 3.58-8 8-8h4c4.42 0 8 3.58 8 8v84c0 4.42-3.58 8-8 8h-4c-4.42 0-8-3.58-8-8zM850 846c0-4.42 3.58-8 8-8h4c4.42 0 8 3.58 8 8v84c0 4.42-3.58 8-8 8h-4c-4.42 0-8-3.58-8-8z" stroke="#000" stroke-opacity="0" fill="#ffb781"/><path d="M1000 168c0-4.42 3.58-8 8-8h144c4.42 0 8 3.58 8 8v104c0 4.42-3.58 8-8 8h-144c-4.42 0-8-3.58-8-8z" stroke="#000" stroke-opacity="0" fill="#ffeadb"/><use xlink:href="#h" transform="matrix(1,0,0,1,1000,160) translate(62.78586419753086 53.69444444444444)"/><use xlink:href="#i" transform="matrix(1,0,0,1,1000,160) translate(46.45802469135802 72.36111111111111)"/><path d="M410 826c0-4.42 3.58-8 8-8h4c4.42 0 8 3.58 8 8v304c0 4.42-3.58 8-8 8h-4c-4.42 0-8-3.58-8-8zM630 966c0-4.42 3.58-8 8-8h4c4.42 0 8 3.58 8 8v144c0 4.42-3.58 8-8 8h-4c-4.42 0-8-3.58-8-8z" stroke="#000" stroke-opacity="0" fill="#ffb781"/><path d="M210.5 357h183.12" stroke="#666" fill="none"/><path d="M210.5 357.5h-.5v-1h.5z" fill="#666"/><path d="M408.38 357l-14.26 4.64v-9.28z" stroke="#666" fill="#666"/><use xlink:href="#j" transform="matrix(1,0,0,1,245.66913580246913,315.6666666666668) translate(0.8087037037036993 12.444444444444446)"/><use xlink:href="#k" transform="matrix(1,0,0,1,245.66913580246913,315.6666666666668) translate(62.98771604938271 12.444444444444446)"/><use xlink:href="#l" transform="matrix(1,0,0,1,245.66913580246913,315.6666666666668) translate(115.70376543209876 12.444444444444446)"/><use xlink:href="#m" transform="matrix(1,0,0,1,245.66913580246913,315.6666666666668) translate(11.204999999999995 31.111111111111118)"/><use xlink:href="#n" transform="matrix(1,0,0,1,245.66913580246913,315.6666666666668) translate(61.28524691358024 31.111111111111118)"/><path d="M409.5 575.47H210.9" fill="none"/><path d="M409.5 575.47h-2m-3.96 0h-3.97m-3.97 0h-3.97m-3.98 0h-3.97m-3.97 0h-3.96m-3.97 0h-3.97m-3.98 0h-3.97m-3.97 0h-3.97m-3.96 0h-3.97m-3.98 0H336m-3.97 0h-3.97m-3.97 0h-3.97m-3.97 0h-3.97m-3.98 0h-3.97m-3.97 0h-3.98m-3.97 0h-3.97m-3.97 0h-3.98m-3.98 0h-3.97m-3.97 0h-3.97m-3.97 0h-3.97m-4 0h-3.96m-3.97 0h-3.97m-3.97 0h-3.98m-3.97 0h-3.97m-3.96 0h-3.97m-3.97 0h-2" stroke="#666" fill="none"/><path d="M410 575.97h-.5v-1h.5z" fill="#666"/><path d="M228.2 565.3l-17.22 10.17 17.22 10.18" stroke="#666" fill="none"/><use xlink:href="#o" transform="matrix(1,0,0,1,273.33641975308643,552.8000000000002) translate(0 12.444444444444446)"/><use xlink:href="#p" transform="matrix(1,0,0,1,273.33641975308643,552.8000000000002) translate(42.302469135802475 12.444444444444446)"/><path d="M629.5 437.6H430.9" fill="none"/><path d="M629.5 437.6h-2m-3.96 0h-3.97m-3.97 0h-3.97m-3.98 0h-3.97m-3.97 0h-3.96m-3.97 0h-3.97m-3.98 0h-3.97m-3.97 0h-3.97m-3.96 0h-3.98m-3.97 0H556m-3.97 0h-3.97m-3.97 0h-3.97m-3.97 0h-3.97m-3.98 0h-3.97m-3.97 0h-3.98m-3.97 0h-3.97m-3.97 0h-3.98m-3.98 0h-3.97m-3.97 0h-3.97m-3.97 0h-3.97m-4 0h-3.96m-3.97 0h-3.97m-3.97 0h-3.98m-3.97 0h-3.97m-3.96 0h-3.97m-3.97 0h-2" stroke="#666" fill="none"/><path d="M630 438.1h-.5v-1h.5z" fill="#666"/><path d="M448.2 427.42l-17.22 10.18 17.22 10.18" stroke="#666" fill="none"/><use xlink:href="#q" transform="matrix(1,0,0,1,478.73148148148147,414.93333333333345) translate(0 12.444444444444446)"/><use xlink:href="#r" transform="matrix(1,0,0,1,478.73148148148147,414.93333333333345) translate(40.53086419753087 12.444444444444446)"/><path d="M430.5 498.4h403.12" stroke="#666" fill="none"/><path d="M430.5 498.9h-.5v-1h.5z" fill="#666"/><path d="M848.38 498.4l-14.26 4.64v-9.28z" stroke="#666" fill="#666"/><use xlink:href="#j" transform="matrix(1,0,0,1,650.7611379495438,475.73333333333346) translate(0 12.444444444444446)"/><use xlink:href="#s" transform="matrix(1,0,0,1,650.7611379495438,475.73333333333346) translate(62.17901234567901 12.444444444444446)"/><use xlink:href="#t" transform="matrix(1,0,0,1,650.7611379495438,475.73333333333346) translate(155.38271604938274 12.444444444444446)"/><path d="M210.5 837.6h99.24c.14 0 .26-.12.26-.26s.12-.25.26-.25h83.36" stroke="#666" fill="none"/><path d="M210.5 838.1h-.5v-1h.5z" fill="#666"/><path d="M408.38 837.1l-14.26 4.62v-9.27z" stroke="#666" fill="#666"/><use xlink:href="#u" transform="matrix(1,0,0,1,253.94577514334017,814.4205143172179) translate(0 12.444444444444446)"/><use xlink:href="#v" transform="matrix(1,0,0,1,253.94577514334017,814.4205143172179) translate(37.074074074074076 12.444444444444446)"/><path d="M849.5 558.24H430.9" fill="none"/><path d="M849.5 558.24h-2m-4.04 0h-4.03m-4.03 0h-4.03m-4.03 0h-4.03m-4.02 0h-4.03m-4.02 0h-4.03m-4.03 0h-4.03m-4.03 0h-4.02m-4.03 0h-4.03m-4.02 0h-4.03m-4.03 0h-4.03m-4.02 0h-4.03m-4.03 0h-4.03m-4.04 0h-4.02m-4.03 0h-4.02m-4.03 0h-4.03m-4.03 0h-4.04m-4.03 0h-4.03m-4.02 0h-4.03m-4.03 0h-4.03m-4.04 0h-4.03m-4.03 0h-4.03m-4.02 0h-4.03m-4.03 0h-4.04m-4.03 0h-4.03m-4.03 0h-4.03m-4.03 0h-4m-4.03 0h-4.02m-4.02 0h-4.02m-4.02 0h-4.02m-4.02 0h-4.02m-4.02 0h-4.02m-4.02 0h-4.02m-4.02 0h-4.02m-4.02 0h-4.03m-4.02 0h-4.02m-4 0h-4.03m-4.02 0h-4.02m-4.02 0h-4m-4.03 0h-4.03m-4.02 0h-4.02m-4.02 0h-4.02m-4.02 0h-4.02m-4.02 0h-4.02m-4.02 0h-4.03m-4.02 0h-4m-4.03 0h-4.02m-4.02 0h-4.02m-4 0h-4.03m-4.02 0h-4.02m-4.03 0h-4.02m-4.02 0h-4.02m-4.02 0h-2" stroke="#666" fill="none"/><path d="M850 558.74h-.5v-1h.5z" fill="#666"/><path d="M448.2 548.06l-17.22 10.18 17.22 10.18" stroke="#666" fill="none"/><use xlink:href="#o" transform="matrix(1,0,0,1,640.6037037037038,516.9090882350781) translate(64.73771604938271 12.444444444444446)"/><use xlink:href="#w" transform="matrix(1,0,0,1,640.6037037037038,516.9090882350781) translate(107.04018518518518 12.444444444444446)"/><use xlink:href="#x" transform="matrix(1,0,0,1,640.6037037037038,516.9090882350781) translate(11.204999999999995 31.111111111111118)"/><use xlink:href="#y" transform="matrix(1,0,0,1,640.6037037037038,516.9090882350781) translate(28.402530864197526 31.111111111111118)"/><use xlink:href="#z" transform="matrix(1,0,0,1,640.6037037037038,516.9090882350781) translate(62.92722222222221 31.111111111111118)"/><use xlink:href="#A" transform="matrix(1,0,0,1,640.6037037037038,516.9090882350781) translate(78.43956790123457 31.111111111111118)"/><use xlink:href="#B" transform="matrix(1,0,0,1,640.6037037037038,516.9090882350781) translate(104.36549382716049 31.111111111111118)"/><path d="M430.5 856.82h403.12" stroke="#666" fill="none"/><path d="M430.5 857.32h-.5v-1h.5z" fill="#666"/><path d="M848.38 856.82l-14.26 4.64v-9.27z" stroke="#666" fill="#666"/><use xlink:href="#C" transform="matrix(1,0,0,1,676.3554750402576,834.1568627450982) translate(0 12.444444444444446)"/><use xlink:href="#v" transform="matrix(1,0,0,1,676.3554750402576,834.1568627450982) translate(60.45061728395062 12.444444444444446)"/><path d="M430.5 974.6h183.12" stroke="#666" fill="none"/><path d="M430.5 975.1h-.5v-1h.5z" fill="#666"/><path d="M628.38 974.6l-14.26 4.63v-9.27z" stroke="#666" fill="#666"/><use xlink:href="#D" transform="matrix(1,0,0,1,464.3858024691358,951.925925925926) translate(0 12.444444444444446)"/><use xlink:href="#t" transform="matrix(1,0,0,1,464.3858024691358,951.925925925926) translate(97.5246913580247 12.444444444444446)"/><path d="M629.5 1097.3h-2v-1h2zm-5.96 0h-3.97v-1h3.97zm-7.94 0h-3.97v-1h3.97zm-7.95 0h-3.97v-1h3.98zm-7.94 0h-3.96v-1h3.97zm-7.93 0h-3.97v-1h3.97zm-7.95 0h-3.97v-1h3.97zm-7.94 0h-3.97v-1h3.98zm-7.94 0h-3.98v-1h3.98zm-7.95 0H556v-1H560zm-7.95 0h-3.97v-1h3.97zm-7.94 0h-3.97v-1h3.98zm-7.94 0h-3.97v-1h3.96zm-7.94 0h-3.97v-1h3.97zm-7.95 0h-3.97v-1h3.98zm-7.94 0h-3.97v-1h3.97zm-7.94 0h-3.98v-1h3.97zm-7.96 0h-3.97v-1h3.97zm-7.94 0h-3.97v-1h3.97zm-7.94 0h-3.98v-1h3.98zm-7.95 0h-3.96v-1h3.97zm-7.93 0h-3.97v-1h3.97zm-7.94 0h-3.98v-1h3.98zm-7.95 0h-3.97v-1h3.98zm-7.94 0h-3.97v-1h3.97zm-7.94 0h-2v-1h2zM630 1097.3h-.5v-1h.5z" fill="#666"/><path d="M448.45 1087.05l-16.5 9.75 16.5 9.75-.5.86-17.95-10.6 17.94-10.6z" fill="#666"/><use xlink:href="#E" transform="matrix(1,0,0,1,530,1087.466666666667) translate(0 12.444444444444446)"/><use xlink:href="#F" transform="matrix(1,0,0,1,476.44135802469134,1074.1333333333337) translate(0.005000000000002558 12.444444444444446)"/><use xlink:href="#G" transform="matrix(1,0,0,1,476.44135802469134,1074.1333333333337) translate(54.44944444444445 12.444444444444446)"/><path d="M650.5 995.35h183.12" stroke="#666" fill="none"/><path d="M650.5 995.85h-.5v-1h.5z" fill="#666"/><path d="M848.38 995.35l-14.26 4.64v-9.28z" stroke="#666" fill="#666"/><use xlink:href="#H" transform="matrix(1,0,0,1,686.5462962962963,972.6871794871795) translate(0 12.444444444444446)"/><use xlink:href="#t" transform="matrix(1,0,0,1,686.5462962962963,972.6871794871795) translate(93.20370370370371 12.444444444444446)"/><path d="M849.5 1076.8H650.9" fill="none"/><path d="M849.5 1076.8h-2m-3.96 0h-3.97m-3.97 0h-3.97m-3.98 0h-3.97m-3.97 0h-3.96m-3.97 0h-3.97m-3.98 0h-3.97m-3.97 0h-3.97m-3.96 0h-3.98m-3.97 0H776m-3.97 0h-3.97m-3.97 0h-3.97m-3.97 0h-3.97m-3.98 0h-3.97m-3.97 0h-3.98m-3.97 0h-3.97m-3.97 0h-3.98m-3.98 0h-3.97m-3.97 0h-3.97m-3.97 0h-3.97m-4 0h-3.96m-3.97 0h-3.97m-3.97 0h-3.98m-3.97 0h-3.97m-3.96 0h-3.97m-3.97 0h-2" stroke="#666" fill="none"/><path d="M850 1077.3h-.5v-1h.5z" fill="#666"/><path d="M668.2 1066.62l-17.22 10.18 17.22 10.18" stroke="#666" fill="none"/><use xlink:href="#F" transform="matrix(1,0,0,1,672.3086419753087,1035.4666666666667) translate(21.938333333333333 12.444444444444446)"/><use xlink:href="#I" transform="matrix(1,0,0,1,672.3086419753087,1035.4666666666667) translate(76.38277777777779 12.444444444444446)"/><use xlink:href="#J" transform="matrix(1,0,0,1,672.3086419753087,1035.4666666666667) translate(118.72845679012346 12.444444444444446)"/><use xlink:href="#K" transform="matrix(1,0,0,1,672.3086419753087,1035.4666666666667) translate(11.204999999999995 31.111111111111118)"/><use xlink:href="#L" transform="matrix(1,0,0,1,672.3086419753087,1035.4666666666667) translate(69.88401234567901 31.111111111111118)"/><use xlink:href="#M" transform="matrix(1,0,0,1,672.3086419753087,1035.4666666666667) translate(128.563024691358 31.111111111111118)"/><path d="M850 986c0-4.42 3.58-8 8-8h4c4.42 0 8 3.58 8 8v104c0 4.42-3.58 8-8 8h-4c-4.42 0-8-3.58-8-8z" stroke="#000" stroke-opacity="0" fill="#ffb781"/><path d="M409.5 1120.8H210.9" fill="none"/><path d="M409.5 1120.8h-2m-3.96 0h-3.97m-3.97 0h-3.97m-3.98 0h-3.97m-3.97 0h-3.96m-3.97 0h-3.97m-3.98 0h-3.97m-3.97 0h-3.97m-3.96 0h-3.97m-3.98 0H336m-3.97 0h-3.97m-3.97 0h-3.97m-3.97 0h-3.97m-3.98 0h-3.97m-3.97 0h-3.98m-3.97 0h-3.97m-3.97 0h-3.98m-3.98 0h-3.97m-3.97 0h-3.97m-3.97 0h-3.97m-4 0h-3.96m-3.97 0h-3.97m-3.97 0h-3.98m-3.97 0h-3.97m-3.96 0h-3.97m-3.97 0h-2" stroke="#666" fill="none"/><path d="M410 1121.3h-.5v-1h.5z" fill="#666"/><path d="M228.2 1110.6l-17.22 10.2 17.22 10.17" stroke="#666" fill="none"/><use xlink:href="#F" transform="matrix(1,0,0,1,256.44135802469134,1098.1232492997206) translate(0.005000000000002558 12.444444444444446)"/><use xlink:href="#G" transform="matrix(1,0,0,1,256.44135802469134,1098.1232492997206) translate(54.44944444444445 12.444444444444446)"/><path d="M849.5 916H430.9" fill="none"/><path d="M849.5 916h-2m-4.04 0h-4.03m-4.03 0h-4.03m-4.03 0h-4.03m-4.02 0h-4.03m-4.02 0h-4.03m-4.03 0h-4.03m-4.03 0h-4.02m-4.03 0h-4.03m-4.02 0h-4.03m-4.03 0h-4.03m-4.02 0h-4.03m-4.03 0h-4.03m-4.04 0h-4.02m-4.03 0h-4.02m-4.03 0h-4.03m-4.03 0h-4.04m-4.03 0h-4.03m-4.02 0h-4.03m-4.03 0h-4.03m-4.04 0h-4.03m-4.03 0h-4.03m-4.02 0h-4.03m-4.03 0h-4.04m-4.03 0h-4.03m-4.03 0h-4.03m-4.03 0h-4m-4.03 0h-4.02m-4.02 0h-4.02m-4.02 0h-4.02m-4.02 0h-4.02m-4.02 0h-4.02m-4.02 0h-4.02m-4.02 0h-4.02m-4.02 0h-4.03m-4.02 0h-4.02m-4 0h-4.03m-4.02 0h-4.02m-4.02 0h-4m-4.03 0h-4.03m-4.02 0h-4.02m-4.02 0h-4.02m-4.02 0h-4.02m-4.02 0h-4.02m-4.02 0h-4.03m-4.02 0h-4m-4.03 0h-4.02m-4.02 0h-4.02m-4 0h-4.03m-4.02 0h-4.02m-4.03 0h-4.02m-4.02 0h-4.02m-4.02 0h-2" stroke="#666" fill="none"/><path d="M850 916.5h-.5v-1h.5z" fill="#666"/><path d="M448.2 905.82L430.98 916l17.22 10.18" stroke="#666" fill="none"/><use xlink:href="#q" transform="matrix(1,0,0,1,693.7314814814816,893.3333333333335) translate(0 12.444444444444446)"/><use xlink:href="#r" transform="matrix(1,0,0,1,693.7314814814816,893.3333333333335) translate(40.53086419753087 12.444444444444446)"/><path d="M80 80h440v20l-10 10H80z" fill="#fe5900"/><path d="M520 80v20l-10 10H80" stroke="#666" fill="none"/><path d="M80 80h1120v1100H80z" stroke="#666" fill="none"/><g><use xlink:href="#N" transform="matrix(1,0,0,1,88,80) translate(0 18.11111111111111)"/><use xlink:href="#O" transform="matrix(1,0,0,1,88,80) translate(22.425925925925927 18.11111111111111)"/></g><path d="M120 168c0-4.42 3.58-8 8-8h144c4.42 0 8 3.58 8 8v104c0 4.42-3.58 8-8 8H128c-4.42 0-8-3.58-8-8z" stroke="#000" stroke-opacity="0" fill="#ff9e56"/><g><use xlink:href="#P" transform="matrix(1,0,0,1,120,160) translate(18.301296296296293 46.19444444444444)"/><use xlink:href="#Q" transform="matrix(1,0,0,1,120,160) translate(93.35685185185186 46.19444444444444)"/><use xlink:href="#R" transform="matrix(1,0,0,1,120,160) translate(83.10000000000001 64.86111111111111)"/><use xlink:href="#S" transform="matrix(1,0,0,1,120,160) translate(83.10000000000001 83.52777777777779)"/></g><path d="M204.75 224.75c0 2.62-2.13 4.75-4.75 4.75s-4.75-2.13-4.75-4.75S197.38 220 200 220s4.75 2.13 4.75 4.75z" stroke="#fff" fill="#ff9e56"/><path d="M200 229.5v6.65c0 3.67 1.64 9.14 3.65 12.2L210 258m-10-15.2L190 258m0-23.75h20" stroke="#fff" fill="none"/><path d="M190 228c0-4.42 3.58-8 8-8h4c4.42 0 8 3.58 8 8v44c0 4.42-3.58 8-8 8h-4c-4.42 0-8-3.58-8-8z" fill="none"/><path d="M430.5 380h183.12" stroke="#666" fill="none"/><path d="M430.5 380.5h-.5v-1h.5z" fill="#666"/><path d="M628.38 380l-14.26 4.64v-9.28z" stroke="#666" fill="#666"/><g><use xlink:href="#T" transform="matrix(1,0,0,1,474.71296296296293,357.33333333333337) translate(0.005000000000002558 12.444444444444446)"/><use xlink:href="#U" transform="matrix(1,0,0,1,474.71296296296293,357.33333333333337) translate(62.184012345679015 12.444444444444446)"/></g><path d="M410 646c0-4.42 3.58-8 8-8h4c4.42 0 8 3.58 8 8v124c0 4.42-3.58 8-8 8h-4c-4.42 0-8-3.58-8-8zM850 666c0-4.42 3.58-8 8-8h4c4.42 0 8 3.58 8 8v84c0 4.42-3.58 8-8 8h-4c-4.42 0-8-3.58-8-8z" stroke="#000" stroke-opacity="0" fill="#ffb781"/><path d="M210.5 658h183.12" stroke="#666" fill="none"/><path d="M210.5 658.5h-.5v-1h.5z" fill="#666"/><path d="M408.38 658l-14.26 4.64v-9.28z" stroke="#666" fill="#666"/><g><use xlink:href="#V" transform="matrix(1,0,0,1,275.08641975308643,635.3333333333334) translate(0.005000000000002558 12.444444444444446)"/><use xlink:href="#W" transform="matrix(1,0,0,1,275.08641975308643,635.3333333333334) translate(37.07907407407408 12.444444444444446)"/></g><path d="M430.5 675.2h403.12" stroke="#666" fill="none"/><path d="M430.5 675.7h-.5v-1h.5z" fill="#666"/><path d="M848.38 675.2l-14.26 4.64v-9.28z" stroke="#666" fill="#666"/><g><use xlink:href="#X" transform="matrix(1,0,0,1,703.3981481481483,652.5333333333334) translate(0.005000000000002558 12.444444444444446)"/><use xlink:href="#W" transform="matrix(1,0,0,1,703.3981481481483,652.5333333333334) translate(60.45561728395062 12.444444444444446)"/></g><path d="M849.5 738.4H430.9" fill="none"/><path d="M849.5 738.4h-2m-4.04 0h-4.02m-4.03 0h-4m-4.04 0h-4.02m-4.03 0h-4m-4.04 0h-4.02m-4.03 0h-4m-4.04 0h-4.02m-4.03 0h-4m-4.04 0h-4.02m-4.03 0h-4m-4.04 0h-4.02m-4.03 0h-4m-4.04 0h-4.02m-4.03 0h-4m-4.03 0h-4.03m-4.02 0h-4.03m-4.03 0h-4.03m-4.02 0h-4.03m-4.03 0h-4.03m-4.02 0h-4.03m-4.03 0h-4.03m-4.02 0h-4.03m-4.03 0h-4.03m-4.02 0h-4.03m-4.03 0h-4.03m-4.02 0h-4.03m-4.03 0h-4.03m-4.02 0h-4.03m-4.03 0h-4.03m-4.02 0H606m-4.03 0h-4.03m-4.02 0h-4.03m-4.03 0h-4.03m-4.02 0h-4.03m-4.03 0h-4.03m-4.02 0h-4.03m-4.03 0h-4.03m-4.02 0h-4.03m-4.03 0h-4.03m-4.02 0h-4.03m-4.03 0h-4.03m-4.02 0h-4.03m-4.03 0h-4.02m-4.03 0h-4.02m-4.03 0h-4.02m-4.03 0h-4.02m-4.03 0h-4.02m-4.03 0h-4.02m-4.03 0h-4.02m-4.03 0H445m-4.03 0h-4.02m-4.03 0h-2" stroke="#666" fill="none"/><path d="M850 738.9h-.5v-1h.5z" fill="#666"/><path d="M448.2 728.22l-17.22 10.18 17.22 10.18" stroke="#666" fill="none"/><g><use xlink:href="#Y" transform="matrix(1,0,0,1,692.3567901234569,715.7333333333333) translate(0.005000000000002558 12.444444444444446)"/><use xlink:href="#Z" transform="matrix(1,0,0,1,692.3567901234569,715.7333333333333) translate(81.06672839506174 12.444444444444446)"/></g><path d="M409.5 755.2H210.9" fill="none"/><path d="M409.5 755.2h-2m-3.96 0h-3.97m-3.97 0h-3.97m-3.98 0h-3.97m-3.97 0h-3.96m-3.97 0h-3.97m-3.98 0h-3.97m-3.97 0h-3.97m-3.96 0h-3.97m-3.98 0H336m-3.97 0h-3.97m-3.97 0h-3.97m-3.97 0h-3.97m-3.98 0h-3.97m-3.97 0h-3.98m-3.97 0h-3.97m-3.97 0h-3.98m-3.98 0h-3.97m-3.97 0h-3.97m-3.97 0h-3.97m-4 0h-3.96m-3.97 0h-3.97m-3.97 0h-3.98m-3.97 0h-3.97m-3.96 0h-3.97m-3.97 0h-2" stroke="#666" fill="none"/><path d="M410 755.7h-.5v-1h.5z" fill="#666"/><path d="M228.2 745.02l-17.22 10.18 17.22 10.18" stroke="#666" fill="none"/><g><use xlink:href="#Y" transform="matrix(1,0,0,1,253.95679012345678,732.5333333333334) translate(0.005000000000002558 12.444444444444446)"/><use xlink:href="#Z" transform="matrix(1,0,0,1,253.95679012345678,732.5333333333334) translate(81.06672839506174 12.444444444444446)"/></g><defs><path fill="#fff" d="M275 0h-61l-44-196L126 0H64L0-248h53L97-49l45-199h58l43 199 44-199h52" id="aa"/><path fill="#fff" d="M185-48c-13 30-37 53-82 52C43 2 14-33 14-96s30-98 90-98c62 0 83 45 84 108H66c0 31 8 55 39 56 18 0 30-7 34-22zm-45-69c5-46-57-63-70-21-2 6-4 13-4 21h74" id="ab"/><path fill="#fff" d="M135-194c52 0 70 43 70 98 0 56-19 99-73 100-30 1-46-15-58-35L72 0H24l1-261h50v104c11-23 29-37 60-37zM114-30c31 0 40-27 40-66 0-37-7-63-39-63s-41 28-41 65c0 36 8 64 40 64" id="ac"/><g id="a"><use transform="matrix(0.04320987654320988,0,0,0.04320987654320988,0,0)" xlink:href="#aa"/><use transform="matrix(0.04320987654320988,0,0,0.04320987654320988,14.34567901234568,0)" xlink:href="#ab"/><use transform="matrix(0.04320987654320988,0,0,0.04320987654320988,22.987654320987655,0)" xlink:href="#ac"/></g><path fill="#fff" d="M182-130c37 4 62 22 62 59C244 23 116-4 24 0v-248c84 5 203-23 205 63 0 31-19 50-47 55zM76-148c40-3 101 13 101-30 0-44-60-28-101-31v61zm0 110c48-3 116 14 116-37 0-48-69-32-116-35v72" id="ad"/><path fill="#fff" d="M135-150c-39-12-60 13-60 57V0H25l-1-190h47c2 13-1 29 3 40 6-28 27-53 61-41v41" id="ae"/><path fill="#fff" d="M110-194c64 0 96 36 96 99 0 64-35 99-97 99-61 0-95-36-95-99 0-62 34-99 96-99zm-1 164c35 0 45-28 45-65 0-40-10-65-43-65-34 0-45 26-45 65 0 36 10 65 43 65" id="af"/><path fill="#fff" d="M231 0h-52l-39-155L100 0H48L-1-190h46L77-45c9-52 24-97 36-145h53l37 145 32-145h46" id="ag"/><path fill="#fff" d="M137-138c1-29-70-34-71-4 15 46 118 7 119 86 1 83-164 76-172 9l43-7c4 19 20 25 44 25 33 8 57-30 24-41C81-84 22-81 20-136c-2-80 154-74 161-7" id="ah"/><g id="b"><use transform="matrix(0.04320987654320988,0,0,0.04320987654320988,0,0)" xlink:href="#ad"/><use transform="matrix(0.04320987654320988,0,0,0.04320987654320988,11.19135802469136,0)" xlink:href="#ae"/><use transform="matrix(0.04320987654320988,0,0,0.04320987654320988,17.24074074074074,0)" xlink:href="#af"/><use transform="matrix(0.04320987654320988,0,0,0.04320987654320988,26.703703703703702,0)" xlink:href="#ag"/><use transform="matrix(0.04320987654320988,0,0,0.04320987654320988,38.80246913580247,0)" xlink:href="#ah"/><use transform="matrix(0.04320987654320988,0,0,0.04320987654320988,47.44444444444444,0)" xlink:href="#ab"/><use transform="matrix(0.04320987654320988,0,0,0.04320987654320988,56.08641975308642,0)" xlink:href="#ae"/></g><path fill="#666" d="M240-174c0 40-23 61-54 70L253 0h-59l-57-94H76V0H24v-248c93 4 217-23 216 74zM76-134c48-2 112 12 112-38 0-48-66-32-112-35v73" id="ai"/><path fill="#666" d="M185-48c-13 30-37 53-82 52C43 2 14-33 14-96s30-98 90-98c62 0 83 45 84 108H66c0 31 8 55 39 56 18 0 30-7 34-22zm-45-69c5-46-57-63-70-21-2 6-4 13-4 21h74" id="aj"/><path fill="#666" d="M25 0v-261h50V0H25" id="ak"/><path fill="#666" d="M123 10C108 53 80 86 19 72V37c35 8 53-11 59-39L3-190h52l48 148c12-52 28-100 44-148h51" id="al"/><path fill="#666" d="M25-224v-37h50v37H25zM25 0v-190h50V0H25" id="am"/><path fill="#666" d="M135-194c87-1 58 113 63 194h-50c-7-57 23-157-34-157-59 0-34 97-39 157H25l-1-190h47c2 12-1 28 3 38 12-26 28-41 61-42" id="an"/><path fill="#666" d="M195-6C206 82 75 100 31 46c-4-6-6-13-8-21l49-6c3 16 16 24 34 25 40 0 42-37 40-79-11 22-30 35-61 35-53 0-70-43-70-97 0-56 18-96 73-97 30 0 46 14 59 34l2-30h47zm-90-29c32 0 41-27 41-63 0-35-9-62-40-62-32 0-39 29-40 63 0 36 9 62 39 62" id="ao"/><g id="c"><use transform="matrix(0.04320987654320988,0,0,0.04320987654320988,0,0)" xlink:href="#ai"/><use transform="matrix(0.04320987654320988,0,0,0.04320987654320988,11.19135802469136,0)" xlink:href="#aj"/><use transform="matrix(0.04320987654320988,0,0,0.04320987654320988,19.833333333333336,0)" xlink:href="#ak"/><use transform="matrix(0.04320987654320988,0,0,0.04320987654320988,24.154320987654323,0)" xlink:href="#al"/><use transform="matrix(0.04320987654320988,0,0,0.04320987654320988,32.7962962962963,0)" xlink:href="#am"/><use transform="matrix(0.04320987654320988,0,0,0.04320987654320988,37.117283950617285,0)" xlink:href="#an"/><use transform="matrix(0.04320987654320988,0,0,0.04320987654320988,46.58024691358024,0)" xlink:href="#ao"/></g><path fill="#666" d="M24-248c93 1 206-16 204 79-1 75-69 88-152 82V0H24v-248zm52 121c47 0 100 7 100-41 0-47-54-39-100-39v80" id="ap"/><path fill="#666" d="M133-34C117-15 103 5 69 4 32 3 11-16 11-54c-1-60 55-63 116-61 1-26-3-47-28-47-18 1-26 9-28 27l-52-2c7-38 36-58 82-57s74 22 75 68l1 82c-1 14 12 18 25 15v27c-30 8-71 5-69-32zm-48 3c29 0 43-24 42-57-32 0-66-3-65 30 0 17 8 27 23 27" id="aq"/><path fill="#666" d="M135-150c-39-12-60 13-60 57V0H25l-1-190h47c2 13-1 29 3 40 6-28 27-53 61-41v41" id="ar"/><path fill="#666" d="M115-3C79 11 28 4 28-45v-112H4v-33h27l15-45h31v45h36v33H77v99c-1 23 16 31 38 25v30" id="as"/><g id="d"><use transform="matrix(0.04320987654320988,0,0,0.04320987654320988,0,0)" xlink:href="#ap"/><use transform="matrix(0.04320987654320988,0,0,0.04320987654320988,10.370370370370372,0)" xlink:href="#aq"/><use transform="matrix(0.04320987654320988,0,0,0.04320987654320988,19.01234567901235,0)" xlink:href="#ar"/><use transform="matrix(0.04320987654320988,0,0,0.04320987654320988,25.06172839506173,0)" xlink:href="#as"/><use transform="matrix(0.04320987654320988,0,0,0.04320987654320988,30.203703703703706,0)" xlink:href="#al"/></g><path fill="#666" d="M67-93c0 74 22 123 53 168H70C40 30 18-18 18-93s22-123 52-168h50c-32 44-53 94-53 168" id="at"/><path fill="#666" d="M67-125c0 53 21 87 73 88 37 1 54-22 65-47l45 17C233-25 199 4 140 4 58 4 20-42 15-125 8-235 124-281 211-232c18 10 29 29 36 50l-46 12c-8-25-30-41-62-41-52 0-71 34-72 86" id="au"/><path fill="#666" d="M110-194c64 0 96 36 96 99 0 64-35 99-97 99-61 0-95-36-95-99 0-62 34-99 96-99zm-1 164c35 0 45-28 45-65 0-40-10-65-43-65-34 0-45 26-45 65 0 36 10 65 43 65" id="av"/><path fill="#666" d="M137-138c1-29-70-34-71-4 15 46 118 7 119 86 1 83-164 76-172 9l43-7c4 19 20 25 44 25 33 8 57-30 24-41C81-84 22-81 20-136c-2-80 154-74 161-7" id="aw"/><path fill="#666" d="M85 4C-2 5 27-109 22-190h50c7 57-23 150 33 157 60-5 35-97 40-157h50l1 190h-47c-2-12 1-28-3-38-12 25-28 42-61 42" id="ax"/><path fill="#666" d="M220-157c-53 9-28 100-34 157h-49v-107c1-27-5-49-29-50C55-147 81-57 75 0H25l-1-190h47c2 12-1 28 3 38 10-53 101-56 108 0 13-22 24-43 59-42 82 1 51 116 57 194h-49v-107c-1-25-5-48-29-50" id="ay"/><path fill="#666" d="M102-93c0 74-22 123-52 168H0C30 29 54-18 53-93c0-74-22-123-53-168h50c30 45 52 94 52 168" id="az"/><g id="e"><use transform="matrix(0.04320987654320988,0,0,0.04320987654320988,0,0)" xlink:href="#at"/><use transform="matrix(0.04320987654320988,0,0,0.04320987654320988,5.1419753086419755,0)" xlink:href="#au"/><use transform="matrix(0.04320987654320988,0,0,0.04320987654320988,16.333333333333336,0)" xlink:href="#av"/><use transform="matrix(0.04320987654320988,0,0,0.04320987654320988,25.796296296296298,0)" xlink:href="#an"/><use transform="matrix(0.04320987654320988,0,0,0.04320987654320988,35.25925925925926,0)" xlink:href="#aw"/><use transform="matrix(0.04320987654320988,0,0,0.04320987654320988,43.901234567901234,0)" xlink:href="#ax"/><use transform="matrix(0.04320987654320988,0,0,0.04320987654320988,53.364197530864196,0)" xlink:href="#ay"/><use transform="matrix(0.04320987654320988,0,0,0.04320987654320988,67.19135802469135,0)" xlink:href="#aj"/><use transform="matrix(0.04320987654320988,0,0,0.04320987654320988,75.83333333333333,0)" xlink:href="#ar"/><use transform="matrix(0.04320987654320988,0,0,0.04320987654320988,81.88271604938271,0)" xlink:href="#az"/></g><path fill="#666" d="M199 0l-22-63H83L61 0H9l90-248h61L250 0h-51zm-33-102l-36-108c-10 38-24 72-36 108h72" id="aA"/><path fill="#666" d="M114-157C55-157 80-60 75 0H25v-261h50l-1 109c12-26 28-41 61-42 86-1 58 113 63 194h-50c-7-57 23-157-34-157" id="aB"/><path fill="#666" d="M12 0v-35l95-120H19v-35h142v35L67-36h103V0H12" id="aC"/><g id="f"><use transform="matrix(0.04320987654320988,0,0,0.04320987654320988,0,0)" xlink:href="#aA"/><use transform="matrix(0.04320987654320988,0,0,0.04320987654320988,11.19135802469136,0)" xlink:href="#ax"/><use transform="matrix(0.04320987654320988,0,0,0.04320987654320988,20.654320987654323,0)" xlink:href="#as"/><use transform="matrix(0.04320987654320988,0,0,0.04320987654320988,25.796296296296298,0)" xlink:href="#aB"/><use transform="matrix(0.04320987654320988,0,0,0.04320987654320988,35.25925925925926,0)" xlink:href="#av"/><use transform="matrix(0.04320987654320988,0,0,0.04320987654320988,44.722222222222214,0)" xlink:href="#ar"/><use transform="matrix(0.04320987654320988,0,0,0.04320987654320988,50.77160493827161,0)" xlink:href="#am"/><use transform="matrix(0.04320987654320988,0,0,0.04320987654320988,55.092592592592595,0)" xlink:href="#aC"/><use transform="matrix(0.04320987654320988,0,0,0.04320987654320988,62.870370370370374,0)" xlink:href="#aq"/><use transform="matrix(0.04320987654320988,0,0,0.04320987654320988,71.51234567901236,0)" xlink:href="#as"/><use transform="matrix(0.04320987654320988,0,0,0.04320987654320988,76.65432098765433,0)" xlink:href="#am"/><use transform="matrix(0.04320987654320988,0,0,0.04320987654320988,80.97530864197532,0)" xlink:href="#av"/><use transform="matrix(0.04320987654320988,0,0,0.04320987654320988,90.43827160493828,0)" xlink:href="#an"/></g><path fill="#666" d="M169-182c-1-43-94-46-97-3 18 66 151 10 154 114 3 95-165 93-204 36-6-8-10-19-12-30l50-8c3 46 112 56 116 5-17-69-150-10-154-114-4-87 153-88 188-35 5 8 8 18 10 28" id="aD"/><path fill="#666" d="M128 0H69L1-190h53L99-40l48-150h52" id="aE"/><g id="g"><use transform="matrix(0.04320987654320988,0,0,0.04320987654320988,0,0)" xlink:href="#aD"/><use transform="matrix(0.04320987654320988,0,0,0.04320987654320988,10.370370370370372,0)" xlink:href="#aj"/><use transform="matrix(0.04320987654320988,0,0,0.04320987654320988,19.01234567901235,0)" xlink:href="#ar"/><use transform="matrix(0.04320987654320988,0,0,0.04320987654320988,25.06172839506173,0)" xlink:href="#aE"/><use transform="matrix(0.04320987654320988,0,0,0.04320987654320988,33.70370370370371,0)" xlink:href="#aj"/><use transform="matrix(0.04320987654320988,0,0,0.04320987654320988,42.345679012345684,0)" xlink:href="#ar"/></g><path fill="#666" d="M186 0v-106H76V0H24v-248h52v99h110v-99h50V0h-50" id="aF"/><g id="h"><use transform="matrix(0.04320987654320988,0,0,0.04320987654320988,0,0)" xlink:href="#aF"/><use transform="matrix(0.04320987654320988,0,0,0.04320987654320988,11.19135802469136,0)" xlink:href="#av"/><use transform="matrix(0.04320987654320988,0,0,0.04320987654320988,20.654320987654323,0)" xlink:href="#aw"/><use transform="matrix(0.04320987654320988,0,0,0.04320987654320988,29.296296296296298,0)" xlink:href="#as"/></g><path fill="#666" d="M88-194c31-1 46 15 58 34l-1-101h50l1 261h-48c-2-10 0-23-3-31C134-8 116 4 84 4 32 4 16-41 15-95c0-56 19-97 73-99zm17 164c33 0 40-30 41-66 1-37-9-64-41-64s-38 30-39 65c0 43 13 65 39 65" id="aG"/><g id="i"><use transform="matrix(0.04320987654320988,0,0,0.04320987654320988,0,0)" xlink:href="#at"/><use transform="matrix(0.04320987654320988,0,0,0.04320987654320988,5.1419753086419755,0)" xlink:href="#ap"/><use transform="matrix(0.04320987654320988,0,0,0.04320987654320988,15.512345679012347,0)" xlink:href="#ar"/><use transform="matrix(0.04320987654320988,0,0,0.04320987654320988,21.56172839506173,0)" xlink:href="#av"/><use transform="matrix(0.04320987654320988,0,0,0.04320987654320988,31.024691358024693,0)" xlink:href="#aE"/><use transform="matrix(0.04320987654320988,0,0,0.04320987654320988,39.66666666666667,0)" xlink:href="#am"/><use transform="matrix(0.04320987654320988,0,0,0.04320987654320988,43.98765432098766,0)" xlink:href="#aG"/><use transform="matrix(0.04320987654320988,0,0,0.04320987654320988,53.45061728395062,0)" xlink:href="#aj"/><use transform="matrix(0.04320987654320988,0,0,0.04320987654320988,62.0925925925926,0)" xlink:href="#ar"/><use transform="matrix(0.04320987654320988,0,0,0.04320987654320988,68.14197530864197,0)" xlink:href="#az"/></g><path fill="#3d4752" d="M233-177c-1 41-23 64-60 70L243 0h-38l-65-103H63V0H30v-248c88 3 205-21 203 71zM63-129c60-2 137 13 137-47 0-61-80-42-137-45v92" id="aH"/><path fill="#3d4752" d="M100-194c63 0 86 42 84 106H49c0 40 14 67 53 68 26 1 43-12 49-29l28 8c-11 28-37 45-77 45C44 4 14-33 15-96c1-61 26-98 85-98zm52 81c6-60-76-77-97-28-3 7-6 17-6 28h103" id="aI"/><path fill="#3d4752" d="M145-31C134-9 116 4 85 4 32 4 16-35 15-94c0-59 17-99 70-100 32-1 48 14 60 33 0-11-1-24 2-32h30l-1 268h-32zM93-21c41 0 51-33 51-76s-8-73-50-73c-40 0-46 35-46 75s5 74 45 74" id="aJ"/><path fill="#3d4752" d="M84 4C-5 8 30-112 23-190h32v120c0 31 7 50 39 49 72-2 45-101 50-169h31l1 190h-30c-1-10 1-25-2-33-11 22-28 36-60 37" id="aK"/><path fill="#3d4752" d="M135-143c-3-34-86-38-87 0 15 53 115 12 119 90S17 21 10-45l28-5c4 36 97 45 98 0-10-56-113-15-118-90-4-57 82-63 122-42 12 7 21 19 24 35" id="aL"/><path fill="#3d4752" d="M59-47c-2 24 18 29 38 22v24C64 9 27 4 27-40v-127H5v-23h24l9-43h21v43h35v23H59v120" id="aM"/><g id="j"><use transform="matrix(0.04320987654320988,0,0,0.04320987654320988,0,0)" xlink:href="#aH"/><use transform="matrix(0.04320987654320988,0,0,0.04320987654320988,11.19135802469136,0)" xlink:href="#aI"/><use transform="matrix(0.04320987654320988,0,0,0.04320987654320988,19.833333333333336,0)" xlink:href="#aJ"/><use transform="matrix(0.04320987654320988,0,0,0.04320987654320988,28.47530864197531,0)" xlink:href="#aK"/><use transform="matrix(0.04320987654320988,0,0,0.04320987654320988,37.117283950617285,0)" xlink:href="#aI"/><use transform="matrix(0.04320987654320988,0,0,0.04320987654320988,45.75925925925927,0)" xlink:href="#aL"/><use transform="matrix(0.04320987654320988,0,0,0.04320987654320988,53.537037037037045,0)" xlink:href="#aM"/></g><path fill="#3d4752" d="M141-36C126-15 110 5 73 4 37 3 15-17 15-53c-1-64 63-63 125-63 3-35-9-54-41-54-24 1-41 7-42 31l-33-3c5-37 33-52 76-52 45 0 72 20 72 64v82c-1 20 7 32 28 27v20c-31 9-61-2-59-35zM48-53c0 20 12 33 32 33 41-3 63-29 60-74-43 2-92-5-92 41" id="aN"/><path fill="#3d4752" d="M96-169c-40 0-48 33-48 73s9 75 48 75c24 0 41-14 43-38l32 2c-6 37-31 61-74 61-59 0-76-41-82-99-10-93 101-131 147-64 4 7 5 14 7 22l-32 3c-4-21-16-35-41-35" id="aO"/><g id="k"><use transform="matrix(0.04320987654320988,0,0,0.04320987654320988,0,0)" xlink:href="#aN"/><use transform="matrix(0.04320987654320988,0,0,0.04320987654320988,8.641975308641976,0)" xlink:href="#aO"/><use transform="matrix(0.04320987654320988,0,0,0.04320987654320988,16.419753086419753,0)" xlink:href="#aO"/><use transform="matrix(0.04320987654320988,0,0,0.04320987654320988,24.19753086419753,0)" xlink:href="#aI"/><use transform="matrix(0.04320987654320988,0,0,0.04320987654320988,32.839506172839506,0)" xlink:href="#aL"/><use transform="matrix(0.04320987654320988,0,0,0.04320987654320988,40.617283950617285,0)" xlink:href="#aL"/></g><path fill="#3d4752" d="M100-194c62-1 85 37 85 99 1 63-27 99-86 99S16-35 15-95c0-66 28-99 85-99zM99-20c44 1 53-31 53-75 0-43-8-75-51-75s-53 32-53 75 10 74 51 75" id="aP"/><g id="l"><use transform="matrix(0.04320987654320988,0,0,0.04320987654320988,0,0)" xlink:href="#aM"/><use transform="matrix(0.04320987654320988,0,0,0.04320987654320988,4.320987654320988,0)" xlink:href="#aP"/></g><path fill="#3d4752" d="M206 0h-36l-40-164L89 0H53L-1-190h32L70-26l43-164h34l41 164 42-164h31" id="aQ"/><path fill="#3d4752" d="M117-194c89-4 53 116 60 194h-32v-121c0-31-8-49-39-48C34-167 62-67 57 0H25l-1-190h30c1 10-1 24 2 32 11-22 29-35 61-36" id="aR"/><path fill="#3d4752" d="M85-194c31 0 48 13 60 33l-1-100h32l1 261h-30c-2-10 0-23-3-31C134-8 116 4 85 4 32 4 16-35 15-94c0-66 23-100 70-100zm9 24c-40 0-46 34-46 75 0 40 6 74 45 74 42 0 51-32 51-76 0-42-9-74-50-73" id="aS"/><g id="m"><use transform="matrix(0.04320987654320988,0,0,0.04320987654320988,0,0)" xlink:href="#aP"/><use transform="matrix(0.04320987654320988,0,0,0.04320987654320988,8.641975308641976,0)" xlink:href="#aQ"/><use transform="matrix(0.04320987654320988,0,0,0.04320987654320988,19.833333333333336,0)" xlink:href="#aR"/><use transform="matrix(0.04320987654320988,0,0,0.04320987654320988,28.47530864197531,0)" xlink:href="#aI"/><use transform="matrix(0.04320987654320988,0,0,0.04320987654320988,37.117283950617285,0)" xlink:href="#aS"/></g><path fill="#3d4752" d="M114-163C36-179 61-72 57 0H25l-1-190h30c1 12-1 29 2 39 6-27 23-49 58-41v29" id="aT"/><g id="n"><use transform="matrix(0.04320987654320988,0,0,0.04320987654320988,0,0)" xlink:href="#aT"/><use transform="matrix(0.04320987654320988,0,0,0.04320987654320988,5.1419753086419755,0)" xlink:href="#aI"/><use transform="matrix(0.04320987654320988,0,0,0.04320987654320988,13.783950617283953,0)" xlink:href="#aL"/><use transform="matrix(0.04320987654320988,0,0,0.04320987654320988,21.56172839506173,0)" xlink:href="#aP"/><use transform="matrix(0.04320987654320988,0,0,0.04320987654320988,30.203703703703713,0)" xlink:href="#aK"/><use transform="matrix(0.04320987654320988,0,0,0.04320987654320988,38.845679012345684,0)" xlink:href="#aT"/><use transform="matrix(0.04320987654320988,0,0,0.04320987654320988,43.98765432098766,0)" xlink:href="#aO"/><use transform="matrix(0.04320987654320988,0,0,0.04320987654320988,51.76543209876544,0)" xlink:href="#aI"/><use transform="matrix(0.04320987654320988,0,0,0.04320987654320988,60.40740740740741,0)" xlink:href="#aL"/></g><path fill="#3d4752" d="M30 0v-248h33v221h125V0H30" id="aU"/><path fill="#3d4752" d="M177-190C167-65 218 103 67 71c-23-6-38-20-44-43l32-5c15 47 100 32 89-28v-30C133-14 115 1 83 1 29 1 15-40 15-95c0-56 16-97 71-98 29-1 48 16 59 35 1-10 0-23 2-32h30zM94-22c36 0 50-32 50-73 0-42-14-75-50-75-39 0-46 34-46 75s6 73 46 73" id="aV"/><path fill="#3d4752" d="M24-231v-30h32v30H24zM24 0v-190h32V0H24" id="aW"/><g id="o"><use transform="matrix(0.04320987654320988,0,0,0.04320987654320988,0,0)" xlink:href="#aU"/><use transform="matrix(0.04320987654320988,0,0,0.04320987654320988,8.641975308641976,0)" xlink:href="#aP"/><use transform="matrix(0.04320987654320988,0,0,0.04320987654320988,17.283950617283953,0)" xlink:href="#aV"/><use transform="matrix(0.04320987654320988,0,0,0.04320987654320988,25.925925925925927,0)" xlink:href="#aW"/><use transform="matrix(0.04320987654320988,0,0,0.04320987654320988,29.339506172839513,0)" xlink:href="#aR"/></g><path fill="#3d4752" d="M101-234c-31-9-42 10-38 44h38v23H63V0H32v-167H5v-23h27c-7-52 17-82 69-68v24" id="aX"/><path fill="#3d4752" d="M210-169c-67 3-38 105-44 169h-31v-121c0-29-5-50-35-48C34-165 62-65 56 0H25l-1-190h30c1 10-1 24 2 32 10-44 99-50 107 0 11-21 27-35 58-36 85-2 47 119 55 194h-31v-121c0-29-5-49-35-48" id="aY"/><g id="p"><use transform="matrix(0.04320987654320988,0,0,0.04320987654320988,0,0)" xlink:href="#aX"/><use transform="matrix(0.04320987654320988,0,0,0.04320987654320988,4.320987654320988,0)" xlink:href="#aP"/><use transform="matrix(0.04320987654320988,0,0,0.04320987654320988,12.962962962962964,0)" xlink:href="#aT"/><use transform="matrix(0.04320987654320988,0,0,0.04320987654320988,18.10493827160494,0)" xlink:href="#aY"/></g><path fill="#3d4752" d="M75-25L15-89v-11l60-65h29v5L45-94l59 64v5H75" id="aZ"/><path fill="#3d4752" d="M106-169C34-169 62-67 57 0H25v-261h32l-1 103c12-21 28-36 61-36 89 0 53 116 60 194h-32v-121c2-32-8-49-39-48" id="ba"/><path fill="#3d4752" d="M115-194c55 1 70 41 70 98S169 2 115 4C84 4 66-9 55-30l1 105H24l-1-265h31l2 30c10-21 28-34 59-34zm-8 174c40 0 45-34 45-75s-6-73-45-74c-42 0-51 32-51 76 0 43 10 73 51 73" id="bb"/><g id="q"><use transform="matrix(0.04320987654320988,0,0,0.04320987654320988,0,0)" xlink:href="#aZ"/><use transform="matrix(0.04320987654320988,0,0,0.04320987654320988,5.1419753086419755,0)" xlink:href="#aZ"/><use transform="matrix(0.04320987654320988,0,0,0.04320987654320988,10.283950617283951,0)" xlink:href="#ba"/><use transform="matrix(0.04320987654320988,0,0,0.04320987654320988,18.925925925925927,0)" xlink:href="#aM"/><use transform="matrix(0.04320987654320988,0,0,0.04320987654320988,23.246913580246915,0)" xlink:href="#aM"/><use transform="matrix(0.04320987654320988,0,0,0.04320987654320988,27.567901234567906,0)" xlink:href="#bb"/></g><path fill="#3d4752" d="M45-25H16v-5l59-64-59-66v-5h29l59 65v11" id="bc"/><g id="r"><use transform="matrix(0.04320987654320988,0,0,0.04320987654320988,0,0)" xlink:href="#aT"/><use transform="matrix(0.04320987654320988,0,0,0.04320987654320988,5.1419753086419755,0)" xlink:href="#aI"/><use transform="matrix(0.04320987654320988,0,0,0.04320987654320988,13.783950617283953,0)" xlink:href="#aS"/><use transform="matrix(0.04320987654320988,0,0,0.04320987654320988,22.425925925925934,0)" xlink:href="#aW"/><use transform="matrix(0.04320987654320988,0,0,0.04320987654320988,25.839506172839513,0)" xlink:href="#aT"/><use transform="matrix(0.04320987654320988,0,0,0.04320987654320988,30.981481481481488,0)" xlink:href="#aI"/><use transform="matrix(0.04320987654320988,0,0,0.04320987654320988,39.62345679012346,0)" xlink:href="#aO"/><use transform="matrix(0.04320987654320988,0,0,0.04320987654320988,47.40123456790124,0)" xlink:href="#aM"/><use transform="matrix(0.04320987654320988,0,0,0.04320987654320988,51.72222222222223,0)" xlink:href="#bc"/><use transform="matrix(0.04320987654320988,0,0,0.04320987654320988,56.8641975308642,0)" xlink:href="#bc"/></g><path fill="#3d4752" d="M9 0v-24l116-142H16v-24h144v24L44-24h123V0H9" id="bd"/><g id="s"><use transform="matrix(0.04320987654320988,0,0,0.04320987654320988,0,0)" xlink:href="#aN"/><use transform="matrix(0.04320987654320988,0,0,0.04320987654320988,8.641975308641976,0)" xlink:href="#aK"/><use transform="matrix(0.04320987654320988,0,0,0.04320987654320988,17.283950617283953,0)" xlink:href="#aM"/><use transform="matrix(0.04320987654320988,0,0,0.04320987654320988,21.60493827160494,0)" xlink:href="#ba"/><use transform="matrix(0.04320987654320988,0,0,0.04320987654320988,30.24691358024692,0)" xlink:href="#aP"/><use transform="matrix(0.04320987654320988,0,0,0.04320987654320988,38.88888888888889,0)" xlink:href="#aT"/><use transform="matrix(0.04320987654320988,0,0,0.04320987654320988,44.03086419753087,0)" xlink:href="#aW"/><use transform="matrix(0.04320987654320988,0,0,0.04320987654320988,47.44444444444445,0)" xlink:href="#bd"/><use transform="matrix(0.04320987654320988,0,0,0.04320987654320988,55.22222222222223,0)" xlink:href="#aN"/><use transform="matrix(0.04320987654320988,0,0,0.04320987654320988,63.8641975308642,0)" xlink:href="#aM"/><use transform="matrix(0.04320987654320988,0,0,0.04320987654320988,68.18518518518519,0)" xlink:href="#aW"/><use transform="matrix(0.04320987654320988,0,0,0.04320987654320988,71.59876543209877,0)" xlink:href="#aP"/><use transform="matrix(0.04320987654320988,0,0,0.04320987654320988,80.24074074074075,0)" xlink:href="#aR"/></g><g id="t"><use transform="matrix(0.04320987654320988,0,0,0.04320987654320988,0,0)" xlink:href="#aO"/><use transform="matrix(0.04320987654320988,0,0,0.04320987654320988,7.777777777777779,0)" xlink:href="#aP"/><use transform="matrix(0.04320987654320988,0,0,0.04320987654320988,16.419753086419753,0)" xlink:href="#aS"/><use transform="matrix(0.04320987654320988,0,0,0.04320987654320988,25.061728395061728,0)" xlink:href="#aI"/></g><path fill="#3d4752" d="M232-93c-1 65-40 97-104 97C67 4 28-28 28-90v-158h33c8 89-33 224 67 224 102 0 64-133 71-224h33v155" id="be"/><g id="u"><use transform="matrix(0.04320987654320988,0,0,0.04320987654320988,0,0)" xlink:href="#be"/><use transform="matrix(0.04320987654320988,0,0,0.04320987654320988,11.19135802469136,0)" xlink:href="#aL"/><use transform="matrix(0.04320987654320988,0,0,0.04320987654320988,18.96913580246914,0)" xlink:href="#aI"/><use transform="matrix(0.04320987654320988,0,0,0.04320987654320988,27.611111111111114,0)" xlink:href="#aT"/></g><g id="v"><use transform="matrix(0.04320987654320988,0,0,0.04320987654320988,0,0)" xlink:href="#bb"/><use transform="matrix(0.04320987654320988,0,0,0.04320987654320988,8.641975308641976,0)" xlink:href="#aI"/><use transform="matrix(0.04320987654320988,0,0,0.04320987654320988,17.283950617283953,0)" xlink:href="#aT"/><use transform="matrix(0.04320987654320988,0,0,0.04320987654320988,22.425925925925927,0)" xlink:href="#aY"/><use transform="matrix(0.04320987654320988,0,0,0.04320987654320988,35.345679012345684,0)" xlink:href="#aW"/><use transform="matrix(0.04320987654320988,0,0,0.04320987654320988,38.75925925925927,0)" xlink:href="#aL"/><use transform="matrix(0.04320987654320988,0,0,0.04320987654320988,46.537037037037045,0)" xlink:href="#aL"/><use transform="matrix(0.04320987654320988,0,0,0.04320987654320988,54.314814814814824,0)" xlink:href="#aW"/><use transform="matrix(0.04320987654320988,0,0,0.04320987654320988,57.72839506172841,0)" xlink:href="#aP"/><use transform="matrix(0.04320987654320988,0,0,0.04320987654320988,66.37037037037038,0)" xlink:href="#aR"/></g><g id="w"><use transform="matrix(0.04320987654320988,0,0,0.04320987654320988,0,0)" xlink:href="#aX"/><use transform="matrix(0.04320987654320988,0,0,0.04320987654320988,4.320987654320988,0)" xlink:href="#aP"/><use transform="matrix(0.04320987654320988,0,0,0.04320987654320988,12.962962962962964,0)" xlink:href="#aT"/><use transform="matrix(0.04320987654320988,0,0,0.04320987654320988,18.10493827160494,0)" xlink:href="#aY"/></g><path fill="#3d4752" d="M87 75C49 33 22-17 22-94c0-76 28-126 65-167h31c-38 41-64 92-64 168S80 34 118 75H87" id="bf"/><g id="x"><use transform="matrix(0.04320987654320988,0,0,0.04320987654320988,0,0)" xlink:href="#bf"/><use transform="matrix(0.04320987654320988,0,0,0.04320987654320988,5.1419753086419755,0)" xlink:href="#aW"/><use transform="matrix(0.04320987654320988,0,0,0.04320987654320988,8.555555555555557,0)" xlink:href="#aX"/></g><g id="y"><use transform="matrix(0.04320987654320988,0,0,0.04320987654320988,0,0)" xlink:href="#aK"/><use transform="matrix(0.04320987654320988,0,0,0.04320987654320988,8.641975308641976,0)" xlink:href="#aL"/><use transform="matrix(0.04320987654320988,0,0,0.04320987654320988,16.419753086419753,0)" xlink:href="#aI"/><use transform="matrix(0.04320987654320988,0,0,0.04320987654320988,25.061728395061728,0)" xlink:href="#aT"/></g><g id="z"><use transform="matrix(0.04320987654320988,0,0,0.04320987654320988,0,0)" xlink:href="#aW"/><use transform="matrix(0.04320987654320988,0,0,0.04320987654320988,3.4135802469135808,0)" xlink:href="#aL"/></g><g id="A"><use transform="matrix(0.04320987654320988,0,0,0.04320987654320988,0,0)" xlink:href="#aR"/><use transform="matrix(0.04320987654320988,0,0,0.04320987654320988,8.641975308641976,0)" xlink:href="#aP"/><use transform="matrix(0.04320987654320988,0,0,0.04320987654320988,17.283950617283953,0)" xlink:href="#aM"/></g><path fill="#3d4752" d="M33-261c38 41 65 92 65 168S71 34 33 75H2C39 34 66-17 66-93S39-220 2-261h31" id="bg"/><g id="B"><use transform="matrix(0.04320987654320988,0,0,0.04320987654320988,0,0)" xlink:href="#aN"/><use transform="matrix(0.04320987654320988,0,0,0.04320987654320988,8.641975308641976,0)" xlink:href="#aK"/><use transform="matrix(0.04320987654320988,0,0,0.04320987654320988,17.283950617283953,0)" xlink:href="#aM"/><use transform="matrix(0.04320987654320988,0,0,0.04320987654320988,21.60493827160494,0)" xlink:href="#ba"/><use transform="matrix(0.04320987654320988,0,0,0.04320987654320988,30.24691358024692,0)" xlink:href="#aI"/><use transform="matrix(0.04320987654320988,0,0,0.04320987654320988,38.88888888888889,0)" xlink:href="#aR"/><use transform="matrix(0.04320987654320988,0,0,0.04320987654320988,47.53086419753087,0)" xlink:href="#aM"/><use transform="matrix(0.04320987654320988,0,0,0.04320987654320988,51.851851851851855,0)" xlink:href="#aW"/><use transform="matrix(0.04320987654320988,0,0,0.04320987654320988,55.26543209876544,0)" xlink:href="#aO"/><use transform="matrix(0.04320987654320988,0,0,0.04320987654320988,63.043209876543216,0)" xlink:href="#aN"/><use transform="matrix(0.04320987654320988,0,0,0.04320987654320988,71.68518518518519,0)" xlink:href="#aM"/><use transform="matrix(0.04320987654320988,0,0,0.04320987654320988,76.00617283950618,0)" xlink:href="#aI"/><use transform="matrix(0.04320987654320988,0,0,0.04320987654320988,84.64814814814815,0)" xlink:href="#aS"/><use transform="matrix(0.04320987654320988,0,0,0.04320987654320988,93.29012345679013,0)" xlink:href="#bg"/></g><path fill="#3d4752" d="M30-248c87 1 191-15 191 75 0 78-77 80-158 76V0H30v-248zm33 125c57 0 124 11 124-50 0-59-68-47-124-48v98" id="bh"/><g id="C"><use transform="matrix(0.04320987654320988,0,0,0.04320987654320988,0,0)" xlink:href="#bh"/><use transform="matrix(0.04320987654320988,0,0,0.04320987654320988,10.370370370370372,0)" xlink:href="#aT"/><use transform="matrix(0.04320987654320988,0,0,0.04320987654320988,15.512345679012347,0)" xlink:href="#aP"/><use transform="matrix(0.04320987654320988,0,0,0.04320987654320988,24.154320987654323,0)" xlink:href="#aO"/><use transform="matrix(0.04320987654320988,0,0,0.04320987654320988,31.9320987654321,0)" xlink:href="#aI"/><use transform="matrix(0.04320987654320988,0,0,0.04320987654320988,40.574074074074076,0)" xlink:href="#aL"/><use transform="matrix(0.04320987654320988,0,0,0.04320987654320988,48.351851851851855,0)" xlink:href="#aL"/></g><g id="D"><use transform="matrix(0.04320987654320988,0,0,0.04320987654320988,0,0)" xlink:href="#aN"/><use transform="matrix(0.04320987654320988,0,0,0.04320987654320988,8.641975308641976,0)" xlink:href="#aK"/><use transform="matrix(0.04320987654320988,0,0,0.04320987654320988,17.283950617283953,0)" xlink:href="#aM"/><use transform="matrix(0.04320987654320988,0,0,0.04320987654320988,21.60493827160494,0)" xlink:href="#ba"/><use transform="matrix(0.04320987654320988,0,0,0.04320987654320988,30.24691358024692,0)" xlink:href="#aP"/><use transform="matrix(0.04320987654320988,0,0,0.04320987654320988,38.88888888888889,0)" xlink:href="#aT"/><use transform="matrix(0.04320987654320988,0,0,0.04320987654320988,44.03086419753087,0)" xlink:href="#aW"/><use transform="matrix(0.04320987654320988,0,0,0.04320987654320988,47.44444444444445,0)" xlink:href="#aM"/><use transform="matrix(0.04320987654320988,0,0,0.04320987654320988,51.76543209876544,0)" xlink:href="#bd"/><use transform="matrix(0.04320987654320988,0,0,0.04320987654320988,59.543209876543216,0)" xlink:href="#aN"/><use transform="matrix(0.04320987654320988,0,0,0.04320987654320988,68.18518518518519,0)" xlink:href="#aM"/><use transform="matrix(0.04320987654320988,0,0,0.04320987654320988,72.50617283950618,0)" xlink:href="#aW"/><use transform="matrix(0.04320987654320988,0,0,0.04320987654320988,75.91975308641976,0)" xlink:href="#aP"/><use transform="matrix(0.04320987654320988,0,0,0.04320987654320988,84.56172839506173,0)" xlink:href="#aR"/></g><path fill="#3d4752" d="M205 0l-28-72H64L36 0H1l101-248h38L239 0h-34zm-38-99l-47-123c-12 45-31 82-46 123h93" id="bi"/><g id="F"><use transform="matrix(0.04320987654320988,0,0,0.04320987654320988,0,0)" xlink:href="#bi"/><use transform="matrix(0.04320987654320988,0,0,0.04320987654320988,10.370370370370372,0)" xlink:href="#aO"/><use transform="matrix(0.04320987654320988,0,0,0.04320987654320988,18.148148148148152,0)" xlink:href="#aO"/><use transform="matrix(0.04320987654320988,0,0,0.04320987654320988,25.925925925925927,0)" xlink:href="#aI"/><use transform="matrix(0.04320987654320988,0,0,0.04320987654320988,34.567901234567906,0)" xlink:href="#aL"/><use transform="matrix(0.04320987654320988,0,0,0.04320987654320988,42.345679012345684,0)" xlink:href="#aL"/></g><g id="G"><use transform="matrix(0.04320987654320988,0,0,0.04320987654320988,0,0)" xlink:href="#aV"/><use transform="matrix(0.04320987654320988,0,0,0.04320987654320988,8.641975308641976,0)" xlink:href="#aT"/><use transform="matrix(0.04320987654320988,0,0,0.04320987654320988,13.783950617283953,0)" xlink:href="#aN"/><use transform="matrix(0.04320987654320988,0,0,0.04320987654320988,22.425925925925934,0)" xlink:href="#aR"/><use transform="matrix(0.04320987654320988,0,0,0.04320987654320988,31.067901234567906,0)" xlink:href="#aM"/><use transform="matrix(0.04320987654320988,0,0,0.04320987654320988,35.38888888888889,0)" xlink:href="#aI"/><use transform="matrix(0.04320987654320988,0,0,0.04320987654320988,44.03086419753087,0)" xlink:href="#aS"/></g><g id="H"><use transform="matrix(0.04320987654320988,0,0,0.04320987654320988,0,0)" xlink:href="#aN"/><use transform="matrix(0.04320987654320988,0,0,0.04320987654320988,8.641975308641976,0)" xlink:href="#aK"/><use transform="matrix(0.04320987654320988,0,0,0.04320987654320988,17.283950617283953,0)" xlink:href="#aM"/><use transform="matrix(0.04320987654320988,0,0,0.04320987654320988,21.60493827160494,0)" xlink:href="#ba"/><use transform="matrix(0.04320987654320988,0,0,0.04320987654320988,30.24691358024692,0)" xlink:href="#aP"/><use transform="matrix(0.04320987654320988,0,0,0.04320987654320988,38.88888888888889,0)" xlink:href="#aT"/><use transform="matrix(0.04320987654320988,0,0,0.04320987654320988,44.03086419753087,0)" xlink:href="#aW"/><use transform="matrix(0.04320987654320988,0,0,0.04320987654320988,47.44444444444445,0)" xlink:href="#bd"/><use transform="matrix(0.04320987654320988,0,0,0.04320987654320988,55.22222222222223,0)" xlink:href="#aN"/><use transform="matrix(0.04320987654320988,0,0,0.04320987654320988,63.8641975308642,0)" xlink:href="#aM"/><use transform="matrix(0.04320987654320988,0,0,0.04320987654320988,68.18518518518519,0)" xlink:href="#aW"/><use transform="matrix(0.04320987654320988,0,0,0.04320987654320988,71.59876543209877,0)" xlink:href="#aP"/><use transform="matrix(0.04320987654320988,0,0,0.04320987654320988,80.24074074074075,0)" xlink:href="#aR"/></g><path fill="#3d4752" d="M143 0L79-87 56-68V0H24v-261h32v163l83-92h37l-77 82L181 0h-38" id="bj"/><g id="I"><use transform="matrix(0.04320987654320988,0,0,0.04320987654320988,0,0)" xlink:href="#aM"/><use transform="matrix(0.04320987654320988,0,0,0.04320987654320988,4.320987654320988,0)" xlink:href="#aP"/><use transform="matrix(0.04320987654320988,0,0,0.04320987654320988,12.962962962962964,0)" xlink:href="#bj"/><use transform="matrix(0.04320987654320988,0,0,0.04320987654320988,20.740740740740744,0)" xlink:href="#aI"/><use transform="matrix(0.04320987654320988,0,0,0.04320987654320988,29.382716049382726,0)" xlink:href="#aR"/></g><g id="J"><use transform="matrix(0.04320987654320988,0,0,0.04320987654320988,0,0)" xlink:href="#aN"/><use transform="matrix(0.04320987654320988,0,0,0.04320987654320988,8.641975308641976,0)" xlink:href="#aR"/><use transform="matrix(0.04320987654320988,0,0,0.04320987654320988,17.283950617283953,0)" xlink:href="#aS"/></g><path fill="#3d4752" d="M24 0v-261h32V0H24" id="bk"/><g id="K"><use transform="matrix(0.04320987654320988,0,0,0.04320987654320988,0,0)" xlink:href="#aP"/><use transform="matrix(0.04320987654320988,0,0,0.04320987654320988,8.641975308641976,0)" xlink:href="#bb"/><use transform="matrix(0.04320987654320988,0,0,0.04320987654320988,17.283950617283953,0)" xlink:href="#aM"/><use transform="matrix(0.04320987654320988,0,0,0.04320987654320988,21.60493827160494,0)" xlink:href="#aW"/><use transform="matrix(0.04320987654320988,0,0,0.04320987654320988,25.018518518518523,0)" xlink:href="#aP"/><use transform="matrix(0.04320987654320988,0,0,0.04320987654320988,33.660493827160494,0)" xlink:href="#aR"/><use transform="matrix(0.04320987654320988,0,0,0.04320987654320988,42.30246913580247,0)" xlink:href="#aN"/><use transform="matrix(0.04320987654320988,0,0,0.04320987654320988,50.94444444444444,0)" xlink:href="#bk"/></g><g id="L"><use transform="matrix(0.04320987654320988,0,0,0.04320987654320988,0,0)" xlink:href="#aH"/><use transform="matrix(0.04320987654320988,0,0,0.04320987654320988,11.19135802469136,0)" xlink:href="#aI"/><use transform="matrix(0.04320987654320988,0,0,0.04320987654320988,19.833333333333336,0)" xlink:href="#aX"/><use transform="matrix(0.04320987654320988,0,0,0.04320987654320988,24.154320987654323,0)" xlink:href="#aT"/><use transform="matrix(0.04320987654320988,0,0,0.04320987654320988,29.296296296296298,0)" xlink:href="#aI"/><use transform="matrix(0.04320987654320988,0,0,0.04320987654320988,37.93827160493827,0)" xlink:href="#aL"/><use transform="matrix(0.04320987654320988,0,0,0.04320987654320988,45.71604938271605,0)" xlink:href="#ba"/></g><g id="M"><use transform="matrix(0.04320987654320988,0,0,0.04320987654320988,0,0)" xlink:href="#aM"/><use transform="matrix(0.04320987654320988,0,0,0.04320987654320988,4.320987654320988,0)" xlink:href="#aP"/><use transform="matrix(0.04320987654320988,0,0,0.04320987654320988,12.962962962962964,0)" xlink:href="#bj"/><use transform="matrix(0.04320987654320988,0,0,0.04320987654320988,20.740740740740744,0)" xlink:href="#aI"/><use transform="matrix(0.04320987654320988,0,0,0.04320987654320988,29.382716049382726,0)" xlink:href="#aR"/></g><path fill="#fff" d="M88-194c31-1 46 15 58 34l-1-101h50l1 261h-48c-2-10 0-23-3-31C134-8 116 4 84 4 32 4 16-41 15-95c0-56 19-97 73-99zm17 164c33 0 40-30 41-66 1-37-9-64-41-64s-38 30-39 65c0 43 13 65 39 65" id="bl"/><g id="N"><use transform="matrix(0.04320987654320988,0,0,0.04320987654320988,0,0)" xlink:href="#ah"/><use transform="matrix(0.04320987654320988,0,0,0.04320987654320988,8.641975308641976,0)" xlink:href="#bl"/></g><path fill="#fff" d="M205 0l-28-72H64L36 0H1l101-248h38L239 0h-34zm-38-99l-47-123c-12 45-31 82-46 123h93" id="bm"/><path fill="#fff" d="M84 4C-5 8 30-112 23-190h32v120c0 31 7 50 39 49 72-2 45-101 50-169h31l1 190h-30c-1-10 1-25-2-33-11 22-28 36-60 37" id="bn"/><path fill="#fff" d="M59-47c-2 24 18 29 38 22v24C64 9 27 4 27-40v-127H5v-23h24l9-43h21v43h35v23H59v120" id="bo"/><path fill="#fff" d="M106-169C34-169 62-67 57 0H25v-261h32l-1 103c12-21 28-36 61-36 89 0 53 116 60 194h-32v-121c2-32-8-49-39-48" id="bp"/><path fill="#fff" d="M100-194c62-1 85 37 85 99 1 63-27 99-86 99S16-35 15-95c0-66 28-99 85-99zM99-20c44 1 53-31 53-75 0-43-8-75-51-75s-53 32-53 75 10 74 51 75" id="bq"/><path fill="#fff" d="M114-163C36-179 61-72 57 0H25l-1-190h30c1 12-1 29 2 39 6-27 23-49 58-41v29" id="br"/><path fill="#fff" d="M24-231v-30h32v30H24zM24 0v-190h32V0H24" id="bs"/><path fill="#fff" d="M9 0v-24l116-142H16v-24h144v24L44-24h123V0H9" id="bt"/><path fill="#fff" d="M141-36C126-15 110 5 73 4 37 3 15-17 15-53c-1-64 63-63 125-63 3-35-9-54-41-54-24 1-41 7-42 31l-33-3c5-37 33-52 76-52 45 0 72 20 72 64v82c-1 20 7 32 28 27v20c-31 9-61-2-59-35zM48-53c0 20 12 33 32 33 41-3 63-29 60-74-43 2-92-5-92 41" id="bu"/><path fill="#fff" d="M117-194c89-4 53 116 60 194h-32v-121c0-31-8-49-39-48C34-167 62-67 57 0H25l-1-190h30c1 10-1 24 2 32 11-22 29-35 61-36" id="bv"/><g id="O"><use transform="matrix(0.04320987654320988,0,0,0.04320987654320988,0,0)" xlink:href="#bm"/><use transform="matrix(0.04320987654320988,0,0,0.04320987654320988,10.370370370370372,0)" xlink:href="#bn"/><use transform="matrix(0.04320987654320988,0,0,0.04320987654320988,19.01234567901235,0)" xlink:href="#bo"/><use transform="matrix(0.04320987654320988,0,0,0.04320987654320988,23.333333333333336,0)" xlink:href="#bp"/><use transform="matrix(0.04320987654320988,0,0,0.04320987654320988,31.97530864197531,0)" xlink:href="#bq"/><use transform="matrix(0.04320987654320988,0,0,0.04320987654320988,40.617283950617285,0)" xlink:href="#br"/><use transform="matrix(0.04320987654320988,0,0,0.04320987654320988,45.75925925925927,0)" xlink:href="#bs"/><use transform="matrix(0.04320987654320988,0,0,0.04320987654320988,49.17283950617284,0)" xlink:href="#bt"/><use transform="matrix(0.04320987654320988,0,0,0.04320987654320988,56.95061728395062,0)" xlink:href="#bu"/><use transform="matrix(0.04320987654320988,0,0,0.04320987654320988,65.5925925925926,0)" xlink:href="#bo"/><use transform="matrix(0.04320987654320988,0,0,0.04320987654320988,69.91358024691358,0)" xlink:href="#bs"/><use transform="matrix(0.04320987654320988,0,0,0.04320987654320988,73.32716049382717,0)" xlink:href="#bq"/><use transform="matrix(0.04320987654320988,0,0,0.04320987654320988,81.96913580246914,0)" xlink:href="#bv"/></g><path fill="#fff" d="M240-174c0 40-23 61-54 70L253 0h-59l-57-94H76V0H24v-248c93 4 217-23 216 74zM76-134c48-2 112 12 112-38 0-48-66-32-112-35v73" id="bw"/><path fill="#fff" d="M85 4C-2 5 27-109 22-190h50c7 57-23 150 33 157 60-5 35-97 40-157h50l1 190h-47c-2-12 1-28-3-38-12 25-28 42-61 42" id="bx"/><path fill="#fff" d="M190-63c-7 42-38 67-86 67-59 0-84-38-90-98-12-110 154-137 174-36l-49 2c-2-19-15-32-35-32-30 0-35 28-38 64-6 74 65 87 74 30" id="by"/><g id="P"><use transform="matrix(0.04320987654320988,0,0,0.04320987654320988,0,0)" xlink:href="#bw"/><use transform="matrix(0.04320987654320988,0,0,0.04320987654320988,11.19135802469136,0)" xlink:href="#ab"/><use transform="matrix(0.04320987654320988,0,0,0.04320987654320988,19.833333333333336,0)" xlink:href="#ah"/><use transform="matrix(0.04320987654320988,0,0,0.04320987654320988,28.47530864197531,0)" xlink:href="#af"/><use transform="matrix(0.04320987654320988,0,0,0.04320987654320988,37.93827160493827,0)" xlink:href="#bx"/><use transform="matrix(0.04320987654320988,0,0,0.04320987654320988,47.40123456790123,0)" xlink:href="#ae"/><use transform="matrix(0.04320987654320988,0,0,0.04320987654320988,53.45061728395062,0)" xlink:href="#by"/><use transform="matrix(0.04320987654320988,0,0,0.04320987654320988,62.0925925925926,0)" xlink:href="#ab"/></g><path fill="#fff" d="M140-251c80 0 125 45 125 126S219 4 139 4C58 4 15-44 15-125s44-126 125-126zm-1 214c52 0 73-35 73-88 0-50-21-86-72-86-52 0-73 35-73 86s22 88 72 88" id="bz"/><path fill="#fff" d="M135-194c87-1 58 113 63 194h-50c-7-57 23-157-34-157-59 0-34 97-39 157H25l-1-190h47c2 12-1 28 3 38 12-26 28-41 61-42" id="bA"/><g id="Q"><use transform="matrix(0.04320987654320988,0,0,0.04320987654320988,0,0)" xlink:href="#bz"/><use transform="matrix(0.04320987654320988,0,0,0.04320987654320988,12.098765432098766,0)" xlink:href="#ag"/><use transform="matrix(0.04320987654320988,0,0,0.04320987654320988,24.19753086419753,0)" xlink:href="#bA"/><use transform="matrix(0.04320987654320988,0,0,0.04320987654320988,33.660493827160494,0)" xlink:href="#ab"/><use transform="matrix(0.04320987654320988,0,0,0.04320987654320988,42.30246913580247,0)" xlink:href="#ae"/></g><g id="T"><use transform="matrix(0.04320987654320988,0,0,0.04320987654320988,0,0)" xlink:href="#aH"/><use transform="matrix(0.04320987654320988,0,0,0.04320987654320988,11.19135802469136,0)" xlink:href="#aI"/><use transform="matrix(0.04320987654320988,0,0,0.04320987654320988,19.833333333333336,0)" xlink:href="#aJ"/><use transform="matrix(0.04320987654320988,0,0,0.04320987654320988,28.47530864197531,0)" xlink:href="#aK"/><use transform="matrix(0.04320987654320988,0,0,0.04320987654320988,37.117283950617285,0)" xlink:href="#aI"/><use transform="matrix(0.04320987654320988,0,0,0.04320987654320988,45.75925925925927,0)" xlink:href="#aL"/><use transform="matrix(0.04320987654320988,0,0,0.04320987654320988,53.537037037037045,0)" xlink:href="#aM"/></g><g id="U"><use transform="matrix(0.04320987654320988,0,0,0.04320987654320988,0,0)" xlink:href="#aN"/><use transform="matrix(0.04320987654320988,0,0,0.04320987654320988,8.641975308641976,0)" xlink:href="#aO"/><use transform="matrix(0.04320987654320988,0,0,0.04320987654320988,16.419753086419753,0)" xlink:href="#aO"/><use transform="matrix(0.04320987654320988,0,0,0.04320987654320988,24.19753086419753,0)" xlink:href="#aI"/><use transform="matrix(0.04320987654320988,0,0,0.04320987654320988,32.839506172839506,0)" xlink:href="#aL"/><use transform="matrix(0.04320987654320988,0,0,0.04320987654320988,40.617283950617285,0)" xlink:href="#aL"/></g><g id="V"><use transform="matrix(0.04320987654320988,0,0,0.04320987654320988,0,0)" xlink:href="#be"/><use transform="matrix(0.04320987654320988,0,0,0.04320987654320988,11.19135802469136,0)" xlink:href="#aL"/><use transform="matrix(0.04320987654320988,0,0,0.04320987654320988,18.96913580246914,0)" xlink:href="#aI"/><use transform="matrix(0.04320987654320988,0,0,0.04320987654320988,27.611111111111114,0)" xlink:href="#aT"/></g><g id="W"><use transform="matrix(0.04320987654320988,0,0,0.04320987654320988,0,0)" xlink:href="#bk"/><use transform="matrix(0.04320987654320988,0,0,0.04320987654320988,3.4135802469135808,0)" xlink:href="#aP"/><use transform="matrix(0.04320987654320988,0,0,0.04320987654320988,12.055555555555557,0)" xlink:href="#aV"/><use transform="matrix(0.04320987654320988,0,0,0.04320987654320988,20.69753086419753,0)" xlink:href="#aW"/><use transform="matrix(0.04320987654320988,0,0,0.04320987654320988,24.111111111111114,0)" xlink:href="#aR"/></g><g id="X"><use transform="matrix(0.04320987654320988,0,0,0.04320987654320988,0,0)" xlink:href="#bh"/><use transform="matrix(0.04320987654320988,0,0,0.04320987654320988,10.370370370370372,0)" xlink:href="#aT"/><use transform="matrix(0.04320987654320988,0,0,0.04320987654320988,15.512345679012347,0)" xlink:href="#aP"/><use transform="matrix(0.04320987654320988,0,0,0.04320987654320988,24.154320987654323,0)" xlink:href="#aO"/><use transform="matrix(0.04320987654320988,0,0,0.04320987654320988,31.9320987654321,0)" xlink:href="#aI"/><use transform="matrix(0.04320987654320988,0,0,0.04320987654320988,40.574074074074076,0)" xlink:href="#aL"/><use transform="matrix(0.04320987654320988,0,0,0.04320987654320988,48.351851851851855,0)" xlink:href="#aL"/></g><g id="Y"><use transform="matrix(0.04320987654320988,0,0,0.04320987654320988,0,0)" xlink:href="#bh"/><use transform="matrix(0.04320987654320988,0,0,0.04320987654320988,10.370370370370372,0)" xlink:href="#aI"/><use transform="matrix(0.04320987654320988,0,0,0.04320987654320988,19.01234567901235,0)" xlink:href="#aT"/><use transform="matrix(0.04320987654320988,0,0,0.04320987654320988,24.154320987654323,0)" xlink:href="#aY"/><use transform="matrix(0.04320987654320988,0,0,0.04320987654320988,37.074074074074076,0)" xlink:href="#aW"/><use transform="matrix(0.04320987654320988,0,0,0.04320987654320988,40.48765432098766,0)" xlink:href="#aL"/><use transform="matrix(0.04320987654320988,0,0,0.04320987654320988,48.26543209876544,0)" xlink:href="#aL"/><use transform="matrix(0.04320987654320988,0,0,0.04320987654320988,56.043209876543216,0)" xlink:href="#aW"/><use transform="matrix(0.04320987654320988,0,0,0.04320987654320988,59.4567901234568,0)" xlink:href="#aP"/><use transform="matrix(0.04320987654320988,0,0,0.04320987654320988,68.09876543209877,0)" xlink:href="#aR"/></g><g id="Z"><use transform="matrix(0.04320987654320988,0,0,0.04320987654320988,0,0)" xlink:href="#aX"/><use transform="matrix(0.04320987654320988,0,0,0.04320987654320988,4.320987654320988,0)" xlink:href="#aP"/><use transform="matrix(0.04320987654320988,0,0,0.04320987654320988,12.962962962962964,0)" xlink:href="#aT"/><use transform="matrix(0.04320987654320988,0,0,0.04320987654320988,18.10493827160494,0)" xlink:href="#aY"/></g></defs></g></svg>